<svg width="20" height="22" viewBox="0 0 20 22" fill="none" xmlns="http://www.w3.org/2000/svg">
<g clip-path="url(#clip0_43_626)">
<path d="M20 13.0626C20 12.5117 19.8008 11.9984 19.4575 11.6198C19.8467 11.1514 20.045 10.5235 19.9908 9.8699C19.8933 8.7048 18.9391 7.7918 17.8175 7.7918H12.67C12.925 6.9402 13.3333 5.37915 13.3333 4.12515C13.3333 2.1369 11.7975 0.458496 10.8333 0.458496C9.96832 0.458496 9.34914 0.994746 9.32332 1.01675C9.22414 1.10384 9.16664 1.23584 9.16664 1.37515V4.48355L6.76582 10.2026L6.66664 10.2586V10.0835C6.66664 9.83045 6.47996 9.62511 6.24996 9.62511H2.08332C0.93418 9.62515 0 10.6527 0 11.9168V19.2501C0 20.5142 0.93418 21.5418 2.08332 21.5418H4.58332C5.48414 21.5418 6.25414 20.9093 6.54414 20.0266C7.2375 20.4189 8.17082 20.6251 8.75 20.6251H16.3992C17.3067 20.6251 18.1009 19.9523 18.2875 19.0246C18.3833 18.5462 18.3275 18.0649 18.1375 17.6469C18.7525 17.3068 19.1667 16.6074 19.1667 15.8126C19.1667 15.4881 19.0992 15.1774 18.9717 14.8969C19.5867 14.5559 20 13.8574 20 13.0626ZM18.2425 14.1938C18.0817 14.2149 17.9458 14.335 17.8942 14.5046C17.8434 14.6741 17.8859 14.8602 18.0042 14.9831C18.2159 15.2021 18.3334 15.4973 18.3334 15.8126C18.3334 16.3911 17.9359 16.8769 17.41 16.9438C17.2492 16.9649 17.1134 17.085 17.0617 17.2546C17.0109 17.4241 17.0534 17.6102 17.1717 17.7331C17.4459 18.0172 17.5559 18.416 17.4734 18.8266C17.3709 19.3382 16.9192 19.7085 16.3992 19.7085H8.75C8.07332 19.7085 6.93832 19.3592 6.545 18.9256C6.42582 18.7955 6.24582 18.757 6.09082 18.8266C5.935 18.8972 5.83332 19.065 5.83332 19.2501C5.83332 20.0082 5.2725 20.6251 4.58332 20.6251H2.08332C1.39414 20.6251 0.83332 20.0082 0.83332 19.2501V11.9168C0.83332 11.1587 1.39414 10.5418 2.08332 10.5418H5.83332V11.0001C5.83332 11.1587 5.90832 11.3063 6.03164 11.3906C6.15332 11.4713 6.30664 11.4796 6.43664 11.4099L7.26996 10.9516C7.35414 10.9057 7.42164 10.8287 7.46164 10.7343L9.96164 4.77595C9.98664 4.71545 9.99996 4.64945 9.99996 4.58345V1.62355C10.1733 1.51815 10.4742 1.37515 10.8333 1.37515C11.29 1.37515 12.5 2.62365 12.5 4.12515C12.5 5.7385 11.7017 8.06405 11.6942 8.087C11.6459 8.22725 11.6625 8.38584 11.74 8.5105C11.8183 8.63425 11.9467 8.7085 12.0833 8.7085H17.8175C18.5125 8.7085 19.1025 9.25575 19.1608 9.95425C19.205 10.4767 18.9766 10.9736 18.5675 11.2513C18.44 11.3375 18.3642 11.4933 18.37 11.6592C18.3758 11.8251 18.4625 11.9736 18.5958 12.0497C18.9483 12.2468 19.1666 12.6355 19.1666 13.0626C19.1667 13.6411 18.7692 14.1269 18.2425 14.1938Z" fill="#2991E1"/>
<path d="M6.2499 10.5415C6.0199 10.5415 5.83322 10.7469 5.83322 10.9999V19.2499C5.83322 19.5029 6.0199 19.7082 6.2499 19.7082C6.4799 19.7082 6.66658 19.5029 6.66658 19.2499V10.9999C6.66658 10.7469 6.4799 10.5415 6.2499 10.5415Z" fill="#2991E1"/>
</g>
<defs>
<clipPath id="clip0_43_626">
<rect width="20" height="22" fill="white"/>
</clipPath>
</defs>
</svg>
