<svg width="24" height="24" viewBox="0 0 24 24" fill="none" xmlns="http://www.w3.org/2000/svg">
<path fill-rule="evenodd" clip-rule="evenodd" d="M14.6074 16.9795L9.28864 19.8933C8.86398 20.114 8.34081 19.9578 8.1067 19.5404V19.5404C8.03897 19.4111 8.00243 19.2677 8 19.1218V6.21074C8 3.74837 9.68262 2.76343 12.1039 2.76343H17.792C20.1395 2.76343 21.896 3.68271 21.896 6.04658V19.1218C21.896 19.3547 21.8034 19.5781 21.6387 19.7428C21.474 19.9075 21.2506 20 21.0177 20C20.8691 19.9976 20.7231 19.9611 20.5909 19.8933L15.2394 16.9795C15.0422 16.873 14.8046 16.873 14.6074 16.9795Z" stroke="#454545" stroke-width="1.5" stroke-linecap="round" stroke-linejoin="round"/>
</svg>
