<svg width="16" height="19" viewBox="0 0 16 19" fill="none"
    xmlns="http://www.w3.org/2000/svg">
    <path fill-rule="evenodd" clip-rule="evenodd" d="M7.60735 14.9795L2.28864 17.8933C1.86398 18.114 1.34081 17.9578 1.1067 17.5404V17.5404C1.03897 17.4111 1.00243 17.2677 1 17.1218V4.21074C1 1.74837 2.68262 0.763428 5.10395 0.763428H10.792C13.1395 0.763428 14.896 1.68271 14.896 4.04658V17.1218C14.896 17.3547 14.8034 17.5781 14.6387 17.7428C14.474 17.9075 14.2506 18 14.0177 18C13.8691 17.9976 13.7231 17.9611 13.5909 17.8933L8.23936 14.9795C8.04216 14.873 7.80455 14.873 7.60735 14.9795Z" stroke="#454545" stroke-width="1.5" stroke-linecap="round" stroke-linejoin="round"/>
</svg>
