<svg width="35" height="35" viewBox="0 0 35 35" fill="none" xmlns="http://www.w3.org/2000/svg">
<path d="M16.5 12.5007H29.8334C29.0834 10.584 27.9378 8.93787 26.3967 7.56232C24.8556 6.18676 23.0845 5.22176 21.0834 4.66732L16.5 12.5007ZM12.6667 15.834L19.3334 4.33398C19.0278 4.27843 18.7223 4.23676 18.4167 4.20898C18.1112 4.18121 17.8056 4.16732 17.5 4.16732C15.6667 4.16732 13.9584 4.51454 12.375 5.20898C10.7917 5.90343 9.38893 6.83398 8.16671 8.00065L12.6667 15.834ZM4.58337 20.834H13.6667L7.00004 9.33398C6.11115 10.4729 5.41671 11.7301 4.91671 13.1057C4.41671 14.4812 4.16671 15.9462 4.16671 17.5007C4.16671 18.084 4.20171 18.6468 4.27171 19.189C4.34171 19.7312 4.4456 20.2795 4.58337 20.834ZM13.9167 30.334L18.4167 22.5007H5.16671C5.91671 24.4173 7.06282 26.0634 8.60504 27.439C10.1473 28.8145 11.9178 29.7795 13.9167 30.334ZM17.5 30.834C19.3334 30.834 21.0417 30.4868 22.625 29.7923C24.2084 29.0979 25.6112 28.1673 26.8334 27.0007L22.3334 19.1673L15.6667 30.6673C15.9723 30.7229 16.2712 30.7645 16.5634 30.7923C16.8556 30.8201 17.1678 30.834 17.5 30.834ZM28 25.6673C28.8889 24.5284 29.5834 23.2718 30.0834 21.8973C30.5834 20.5229 30.8334 19.0573 30.8334 17.5007C30.8334 16.9173 30.7989 16.3551 30.73 15.814C30.6612 15.2729 30.5567 14.724 30.4167 14.1673H21.3334L28 25.6673ZM17.5 34.1673C15.2223 34.1673 13.0695 33.7295 11.0417 32.854C9.01393 31.9784 7.24337 30.784 5.73004 29.2707C4.21671 27.7573 3.02226 25.9868 2.14671 23.959C1.27115 21.9312 0.833374 19.7784 0.833374 17.5007C0.833374 15.1951 1.27115 13.0357 2.14671 11.0223C3.02226 9.00898 4.21671 7.2451 5.73004 5.73065C7.24337 4.21621 9.01393 3.02176 11.0417 2.14732C13.0695 1.27287 15.2223 0.835095 17.5 0.833984C19.8056 0.833984 21.9656 1.27176 23.98 2.14732C25.9945 3.02287 27.7578 4.21732 29.27 5.73065C30.7823 7.24398 31.9767 9.00787 32.8534 11.0223C33.73 13.0368 34.1678 15.1962 34.1667 17.5007C34.1667 19.7784 33.7289 21.9312 32.8534 23.959C31.9778 25.9868 30.7834 27.7579 29.27 29.2723C27.7567 30.7868 25.9928 31.9812 23.9784 32.8556C21.9639 33.7301 19.8045 34.1673 17.5 34.1673Z" fill="#4E575F"/>
</svg>
