<svg width="25" height="24" viewBox="0 0 25 24" fill="none" xmlns="http://www.w3.org/2000/svg">
<path d="M7.49 2H5.59C3.4 2 2.25 3.15 2.25 5.33V7.23C2.25 9.41 3.4 10.56 5.58 10.56H7.48C9.66 10.56 10.81 9.41 10.81 7.23V5.33C10.82 3.15 9.67 2 7.49 2Z" fill="#4E575F"/>
<path d="M18.9199 2H17.0199C14.8399 2 13.6899 3.15 13.6899 5.33V7.23C13.6899 9.41 14.8399 10.56 17.0199 10.56H18.9199C21.0999 10.56 22.2499 9.41 22.2499 7.23V5.33C22.2499 3.15 21.0999 2 18.9199 2Z" fill="#4E575F"/>
<path d="M18.9199 13.4299H17.0199C14.8399 13.4299 13.6899 14.5799 13.6899 16.7599V18.6599C13.6899 20.8399 14.8399 21.9899 17.0199 21.9899H18.9199C21.0999 21.9899 22.2499 20.8399 22.2499 18.6599V16.7599C22.2499 14.5799 21.0999 13.4299 18.9199 13.4299Z" fill="#4E575F"/>
<path d="M7.49 13.4299H5.59C3.4 13.4299 2.25 14.5799 2.25 16.7599V18.6599C2.25 20.8499 3.4 21.9999 5.58 21.9999H7.48C9.66 21.9999 10.81 20.8499 10.81 18.6699V16.7699C10.82 14.5799 9.67 13.4299 7.49 13.4299Z" fill="#4E575F"/>
</svg>
