e<svg width="23" height="22" viewBox="0 0 23 22" fill="none" xmlns="http://www.w3.org/2000/svg">
<path d="M0.547821 20.9996H22.4086C22.4472 20.9996 22.4778 20.961 22.4778 20.914V8.28902C22.4778 8.12992 22.3711 7.99976 22.2407 7.99976H15.8572C15.7268 7.99976 15.6201 8.12992 15.6201 8.28902V13.3729H18.2511C18.4487 13.3729 18.6087 13.5681 18.6087 13.8092C18.6087 14.0503 18.4487 14.2455 18.2511 14.2455H15.2624L8.28306 14.2467C8.15264 14.2467 8.04594 14.3769 8.04594 14.536V16.8103H10.6779C10.8755 16.8103 11.0356 17.0055 11.0356 17.2466C11.0356 17.4877 10.8755 17.6829 10.6779 17.6829H7.68829C7.68632 17.6829 7.68434 17.6817 7.68138 17.6817H0.714906C0.58449 17.6817 0.477783 17.8119 0.477783 17.971V20.9154C0.477783 20.9612 0.5083 20.9996 0.547821 20.9996Z" fill="#B3BAC1"/>
<path d="M13.2176 9.40822L11.7339 9.19251C11.6149 9.17538 11.5121 9.10079 11.4587 8.99293L10.7813 7.62109L10.1312 8.99293C10.0778 9.10079 9.97496 9.17537 9.85602 9.19251L8.3723 9.40822L9.44579 10.4545C9.53147 10.5381 9.57179 10.6591 9.55062 10.778L9.29762 12.2557L10.6251 11.5582C10.7319 11.5028 10.859 11.5028 10.9648 11.5582L12.2923 12.2557L12.0393 10.778C12.0191 10.6591 12.0584 10.5392 12.1441 10.4545L13.2176 9.40822Z" fill="#B3BAC1"/>
<path d="M22.8117 2.98067C22.8187 2.97462 22.8359 2.95749 22.8258 2.92523C22.8157 2.89298 22.7915 2.88995 22.7824 2.88895L20.7292 2.5906C20.6103 2.57347 20.5075 2.49888 20.4541 2.39102L19.5348 0.529322C19.5267 0.512187 19.4451 0.513195 19.437 0.529322L18.5188 2.39002C18.4653 2.49787 18.3625 2.57246 18.2436 2.58959L16.1904 2.88794C16.1813 2.88895 16.1571 2.89298 16.147 2.92523C16.1369 2.95749 16.1541 2.97463 16.1611 2.98067L17.6469 4.42912C17.7325 4.51278 17.7729 4.63374 17.7517 4.75268L17.4009 6.79784C17.3999 6.80692 17.3949 6.83111 17.4231 6.85127C17.4503 6.87143 17.4725 6.85933 17.4795 6.8553L19.3171 5.88966C19.3695 5.86144 19.4279 5.84733 19.4864 5.84733C19.5449 5.84733 19.6033 5.86144 19.6557 5.88966L21.4923 6.8553C21.5013 6.86034 21.5235 6.87042 21.5497 6.85127C21.5769 6.83111 21.5729 6.80792 21.5709 6.79885L21.2201 4.75369C21.1999 4.63576 21.2393 4.5148 21.3249 4.43013L22.8117 2.98067Z" fill="#B3BAC1"/>
<path d="M5.32831 14.0779L3.84459 13.8622C3.72565 13.8451 3.62284 13.7705 3.56941 13.6626L2.89206 12.2908L2.24193 13.6626C2.18851 13.7705 2.0857 13.8451 1.96676 13.8622L0.483032 14.0779L1.55753 15.1242C1.64321 15.2078 1.68353 15.3288 1.66236 15.4477L1.40936 16.9254L2.73684 16.2279C2.78926 16.1997 2.84772 16.1856 2.90618 16.1856C2.96464 16.1856 3.02311 16.1997 3.07552 16.2279L4.403 16.9254L4.15 15.4477C4.12984 15.3288 4.16916 15.2088 4.25483 15.1242L5.32831 14.0779Z" fill="#B3BAC1"/>
</svg>
