<svg width="30" height="30" viewBox="0 0 30 30" fill="none" xmlns="http://www.w3.org/2000/svg">
<path d="M24.3413 10.1178C27.0185 13.8186 25.33 19.4334 20.6129 22.8457C15.9086 26.2488 10.1965 25.9442 7.51214 22.2334C4.81379 18.5033 6.12304 12.5308 10.8039 9.1447C15.485 5.75844 21.6431 6.38784 24.3413 10.1178Z" stroke="url(#paint0_linear_754_1783)" stroke-width="0.847038"/>
<path d="M23.5556 8.19547C27.4616 12.8243 26.4527 18.4212 21.0191 22.831C15.4244 26.9563 9.35545 25.9611 6.16551 21.9037C2.97556 17.8462 4.14552 11.1017 9.0995 7.51806C14.0535 3.93439 20.6168 4.13288 23.5556 8.19547Z" fill="url(#paint1_linear_754_1783)"/>
<path d="M22.9848 8.0884C24.3267 9.94344 24.5488 12.2773 23.8235 14.607C23.0972 16.9399 21.4236 19.2486 19.0142 20.9915C14.1684 24.497 8.35519 24.2542 5.6762 20.5508C2.98353 16.8285 4.38476 10.7776 9.20707 7.28915C14.0295 3.8006 20.2923 4.36626 22.9848 8.0884Z" stroke="url(#paint2_linear_754_1783)" stroke-width="0.847038"/>
<path d="M21.9028 8.0942C24.1221 11.1622 22.8758 16.4427 18.2298 19.8035C13.5839 23.1644 8.17858 22.6956 5.95925 19.6276C3.73991 16.5597 4.98624 11.2792 9.63219 7.91833C14.2781 4.55748 19.6835 5.02625 21.9028 8.0942Z" fill="#FFD93B" stroke="url(#paint3_linear_754_1783)" stroke-width="2.35288"/>
<path d="M20.7647 8.92079C21.7201 10.2415 21.8458 11.9939 21.2456 13.7775C20.6456 15.5608 19.3235 17.3589 17.4145 18.7399C15.5055 20.1208 13.3839 20.8138 11.5024 20.8257C9.62054 20.8375 7.99552 20.1697 7.04014 18.8491C6.08476 17.5284 5.95904 15.776 6.55922 13.9923C7.15925 12.2091 8.4814 10.4109 10.3904 9.02996C12.2994 7.64901 14.421 6.95599 16.3024 6.94415C18.1843 6.9323 19.8093 7.60009 20.7647 8.92079Z" stroke="url(#paint4_linear_754_1783)" stroke-width="0.376461"/>
<g filter="url(#filter0_d_754_1783)">
<g filter="url(#filter1_d_754_1783)">
<path d="M14.4976 16.5687L15.1444 16.3977L14.5973 18.4351L14.0502 20.4724L13.3639 20.7905L13.5644 20.0439L14.4976 16.5687Z" fill="url(#paint5_linear_754_1783)"/>
<path d="M14.4976 16.5687L15.1444 16.3977L16.1355 15.4909C15.7864 15.6284 15.4459 15.6327 15.4459 15.6327L14.4976 16.5687Z" fill="url(#paint6_linear_754_1783)"/>
<path d="M13.3639 20.7905L13.5644 20.0439L10.6972 21.4081L10.4898 22.1804L13.3639 20.7905Z" fill="url(#paint7_linear_754_1783)"/>
</g>
<g filter="url(#filter2_d_754_1783)">
<path d="M9.67136 15.9786L9.18758 15.4973L8.04703 19.7445L8.51001 20.2233L8.71048 19.4768L9.67136 15.9786Z" fill="url(#paint8_linear_754_1783)"/>
<path d="M9.67136 15.9786L9.18758 15.4973L10.5906 14.8382L10.8219 15.0776L11.0532 15.317L9.67136 15.9786Z" fill="url(#paint9_linear_754_1783)"/>
<path d="M8.51001 20.2233L8.71048 19.4768L10.697 21.4079L10.4896 22.1802L8.51001 20.2233Z" fill="url(#paint10_linear_754_1783)"/>
</g>
<path d="M12.5297 14.3904C12.6979 14.178 12.9553 14.1335 13.1041 14.2911L13.3738 14.5767L12.7642 15.3462L12.4945 15.0607C12.3457 14.9031 12.3614 14.6028 12.5297 14.3904Z" fill="url(#paint11_linear_754_1783)"/>
<path d="M13 15.5769L13.3391 15.7547C13.5263 15.8529 13.5758 16.1309 13.4496 16.3754C13.3235 16.6198 13.0692 16.7385 12.882 16.6404L12.5429 16.4626L13 15.5769Z" fill="url(#paint12_linear_754_1783)"/>
<path d="M14.5171 14.2345C14.4173 14.4898 14.1716 14.646 13.9685 14.583C13.7655 14.52 13.6816 14.2617 13.7813 14.0063C13.881 13.7509 14.1267 13.5948 14.3298 13.6578C14.5329 13.7208 14.6168 13.9791 14.5171 14.2345Z" fill="url(#paint13_linear_754_1783)"/>
<path d="M11.3321 17.0473C11.4318 16.792 11.6775 16.6358 11.8806 16.6988L12.2485 16.8129L11.8872 17.7381L11.5193 17.624C11.3163 17.561 11.2324 17.3027 11.3321 17.0473Z" fill="url(#paint14_linear_754_1783)"/>
<path d="M11.5696 19.2554C11.7727 19.3183 12.0184 19.1622 12.1181 18.9068L12.2988 18.4442L11.9309 18.3301C11.7278 18.2672 11.4821 18.4233 11.3824 18.6787C11.2827 18.934 11.3665 19.1924 11.5696 19.2554Z" fill="url(#paint15_linear_754_1783)"/>
</g>
<g filter="url(#filter3_f_754_1783)">
<path d="M24.55 13.2892L25.9335 15.4941C26.3622 12.9747 25.4249 10.9582 25.0565 10.3988C24.765 9.85237 24.2241 9.08475 23.5871 8.2425C21.8965 5.59945 18.3328 3.24214 12.793 5.0024C6.20414 7.26837 4.02018 12.608 3.78589 14.9658L23.9867 13.0311L24.55 13.2892Z" fill="url(#paint16_linear_754_1783)" fill-opacity="0.3"/>
</g>
<defs>
<filter id="filter0_d_754_1783" x="8.047" y="13.6438" width="8.0885" height="8.63074" filterUnits="userSpaceOnUse" color-interpolation-filters="sRGB">
<feFlood flood-opacity="0" result="BackgroundImageFix"/>
<feColorMatrix in="SourceAlpha" type="matrix" values="0 0 0 0 0 0 0 0 0 0 0 0 0 0 0 0 0 0 127 0" result="hardAlpha"/>
<feOffset dy="0.0941153"/>
<feComposite in2="hardAlpha" operator="out"/>
<feColorMatrix type="matrix" values="0 0 0 0 1 0 0 0 0 0.937917 0 0 0 0 0.379167 0 0 0 1 0"/>
<feBlend mode="normal" in2="BackgroundImageFix" result="effect1_dropShadow_754_1783"/>
<feBlend mode="normal" in="SourceGraphic" in2="effect1_dropShadow_754_1783" result="shape"/>
</filter>
<filter id="filter1_d_754_1783" x="10.4527" y="15.491" width="5.71988" height="6.7637" filterUnits="userSpaceOnUse" color-interpolation-filters="sRGB">
<feFlood flood-opacity="0" result="BackgroundImageFix"/>
<feColorMatrix in="SourceAlpha" type="matrix" values="0 0 0 0 0 0 0 0 0 0 0 0 0 0 0 0 0 0 127 0" result="hardAlpha"/>
<feOffset dy="0.0371239"/>
<feGaussianBlur stdDeviation="0.0185619"/>
<feComposite in2="hardAlpha" operator="out"/>
<feColorMatrix type="matrix" values="0 0 0 0 0 0 0 0 0 0 0 0 0 0 0 0 0 0 0.1 0"/>
<feBlend mode="normal" in2="BackgroundImageFix" result="effect1_dropShadow_754_1783"/>
<feBlend mode="normal" in="SourceGraphic" in2="effect1_dropShadow_754_1783" result="shape"/>
</filter>
<filter id="filter2_d_754_1783" x="8.00987" y="14.8381" width="3.08047" height="7.41629" filterUnits="userSpaceOnUse" color-interpolation-filters="sRGB">
<feFlood flood-opacity="0" result="BackgroundImageFix"/>
<feColorMatrix in="SourceAlpha" type="matrix" values="0 0 0 0 0 0 0 0 0 0 0 0 0 0 0 0 0 0 127 0" result="hardAlpha"/>
<feOffset dy="0.0371239"/>
<feGaussianBlur stdDeviation="0.0185619"/>
<feComposite in2="hardAlpha" operator="out"/>
<feColorMatrix type="matrix" values="0 0 0 0 0 0 0 0 0 0 0 0 0 0 0 0 0 0 0.1 0"/>
<feBlend mode="normal" in2="BackgroundImageFix" result="effect1_dropShadow_754_1783"/>
<feBlend mode="normal" in="SourceGraphic" in2="effect1_dropShadow_754_1783" result="shape"/>
</filter>
<filter id="filter3_f_754_1783" x="3.62837" y="4.23604" width="22.5727" height="11.4156" filterUnits="userSpaceOnUse" color-interpolation-filters="sRGB">
<feFlood flood-opacity="0" result="BackgroundImageFix"/>
<feBlend mode="normal" in="SourceGraphic" in2="BackgroundImageFix" result="shape"/>
<feGaussianBlur stdDeviation="0.078759" result="effect1_foregroundBlur_754_1783"/>
</filter>
<linearGradient id="paint0_linear_754_1783" x1="24.1392" y1="9.10591" x2="9.66999" y2="25.3717" gradientUnits="userSpaceOnUse">
<stop stop-color="#FDF8CE"/>
<stop offset="0.0550575" stop-color="#F2E158"/>
<stop offset="0.170676" stop-color="#FCF5AF"/>
<stop offset="0.309086" stop-color="#ECD42F"/>
<stop offset="0.491314" stop-color="#E9B00C"/>
<stop offset="0.704021" stop-color="#ECB600"/>
<stop offset="0.78935" stop-color="#E8CF29"/>
<stop offset="0.843399" stop-color="#EBD431"/>
<stop offset="0.909367" stop-color="#E2C317"/>
<stop offset="1" stop-color="#E9D14F"/>
</linearGradient>
<linearGradient id="paint1_linear_754_1783" x1="23.8908" y1="9.21155" x2="7.89474" y2="25.3648" gradientUnits="userSpaceOnUse">
<stop stop-color="#EEBB5C"/>
<stop offset="0.0550575" stop-color="#FDEE48"/>
<stop offset="0.170676" stop-color="#E8BB06"/>
<stop offset="0.309086" stop-color="#D57B01"/>
<stop offset="0.491314" stop-color="#C86101"/>
<stop offset="0.660555" stop-color="#D88C2D"/>
<stop offset="0.771761" stop-color="#E8BE29"/>
<stop offset="0.815114" stop-color="#E8BE29"/>
<stop offset="0.881945" stop-color="#E8AE0E"/>
<stop offset="0.930202" stop-color="#D98317"/>
<stop offset="1" stop-color="#EBAE4E"/>
</linearGradient>
<linearGradient id="paint2_linear_754_1783" x1="22.7829" y1="7.07638" x2="8.03268" y2="23.8519" gradientUnits="userSpaceOnUse">
<stop stop-color="#FDF8CE"/>
<stop offset="0.0550575" stop-color="#F2E158"/>
<stop offset="0.170676" stop-color="#FCF5AF"/>
<stop offset="0.309086" stop-color="#ECD42F"/>
<stop offset="0.491314" stop-color="#E9B00C"/>
<stop offset="0.704021" stop-color="#ECB600"/>
<stop offset="0.78935" stop-color="#E8CF29"/>
<stop offset="0.843399" stop-color="#EBD431"/>
<stop offset="0.909367" stop-color="#E2C317"/>
<stop offset="1" stop-color="#E9D14F"/>
</linearGradient>
<linearGradient id="paint3_linear_754_1783" x1="18.0863" y1="4.28271" x2="10.9119" y2="23.4646" gradientUnits="userSpaceOnUse">
<stop stop-color="#FFDC5E"/>
<stop offset="0.417119" stop-color="#FFED97"/>
<stop offset="1" stop-color="#FFF27B"/>
</linearGradient>
<linearGradient id="paint4_linear_754_1783" x1="10.3748" y1="8.49129" x2="18.0984" y2="18.7217" gradientUnits="userSpaceOnUse">
<stop stop-color="#E4991A"/>
<stop offset="0.474971" stop-color="#EAAA2E" stop-opacity="0"/>
<stop offset="1" stop-color="#FFF27B" stop-opacity="0"/>
</linearGradient>
<linearGradient id="paint5_linear_754_1783" x1="14.2694" y1="15.2729" x2="13.4225" y2="22.523" gradientUnits="userSpaceOnUse">
<stop stop-color="#E19D37"/>
<stop offset="0.494792" stop-color="#EEA230"/>
<stop offset="1" stop-color="#DB9224"/>
</linearGradient>
<linearGradient id="paint6_linear_754_1783" x1="14.2694" y1="15.2729" x2="13.4225" y2="22.523" gradientUnits="userSpaceOnUse">
<stop stop-color="#E19D37"/>
<stop offset="0.494792" stop-color="#EEA230"/>
<stop offset="1" stop-color="#DB9224"/>
</linearGradient>
<linearGradient id="paint7_linear_754_1783" x1="14.2694" y1="15.2729" x2="13.4225" y2="22.523" gradientUnits="userSpaceOnUse">
<stop stop-color="#E19D37"/>
<stop offset="0.494792" stop-color="#EEA230"/>
<stop offset="1" stop-color="#DB9224"/>
</linearGradient>
<linearGradient id="paint8_linear_754_1783" x1="10.9031" y1="14.8747" x2="10.0556" y2="22.1295" gradientUnits="userSpaceOnUse">
<stop stop-color="#E19D37"/>
<stop offset="0.494792" stop-color="#EEA230"/>
<stop offset="1" stop-color="#DB9224"/>
</linearGradient>
<linearGradient id="paint9_linear_754_1783" x1="10.9031" y1="14.8747" x2="10.0556" y2="22.1295" gradientUnits="userSpaceOnUse">
<stop stop-color="#E19D37"/>
<stop offset="0.494792" stop-color="#EEA230"/>
<stop offset="1" stop-color="#DB9224"/>
</linearGradient>
<linearGradient id="paint10_linear_754_1783" x1="10.9031" y1="14.8747" x2="10.0556" y2="22.1295" gradientUnits="userSpaceOnUse">
<stop stop-color="#E19D37"/>
<stop offset="0.494792" stop-color="#EEA230"/>
<stop offset="1" stop-color="#DB9224"/>
</linearGradient>
<linearGradient id="paint11_linear_754_1783" x1="13.1041" y1="14.2911" x2="12.3978" y2="14.9583" gradientUnits="userSpaceOnUse">
<stop stop-color="#E19D37"/>
<stop offset="0.494792" stop-color="#EEA230"/>
<stop offset="1" stop-color="#DB9224"/>
</linearGradient>
<linearGradient id="paint12_linear_754_1783" x1="13.3391" y1="15.7547" x2="12.8762" y2="16.6373" gradientUnits="userSpaceOnUse">
<stop stop-color="#E19D37"/>
<stop offset="0.494792" stop-color="#EEA230"/>
<stop offset="1" stop-color="#DB9224"/>
</linearGradient>
<linearGradient id="paint13_linear_754_1783" x1="14.3298" y1="13.6578" x2="14.0364" y2="14.604" gradientUnits="userSpaceOnUse">
<stop stop-color="#E19D37"/>
<stop offset="0.494792" stop-color="#EEA230"/>
<stop offset="1" stop-color="#DB9224"/>
</linearGradient>
<linearGradient id="paint14_linear_754_1783" x1="11.8806" y1="16.6988" x2="11.5871" y2="17.645" gradientUnits="userSpaceOnUse">
<stop stop-color="#E19D37"/>
<stop offset="0.494792" stop-color="#EEA230"/>
<stop offset="1" stop-color="#DB9224"/>
</linearGradient>
<linearGradient id="paint15_linear_754_1783" x1="11.9309" y1="18.3301" x2="11.6374" y2="19.2764" gradientUnits="userSpaceOnUse">
<stop stop-color="#E19D37"/>
<stop offset="0.494792" stop-color="#EEA230"/>
<stop offset="1" stop-color="#DB9224"/>
</linearGradient>
<linearGradient id="paint16_linear_754_1783" x1="11.1471" y1="14.0976" x2="10.852" y2="3.57095" gradientUnits="userSpaceOnUse">
<stop stop-color="white"/>
<stop offset="0.105858" stop-color="white"/>
<stop offset="0.21696" stop-color="white" stop-opacity="0.961194"/>
<stop offset="1" stop-color="white" stop-opacity="0"/>
</linearGradient>
</defs>
</svg>
