<svg width="19" height="19" viewBox="0 0 19 19" fill="none"
    xmlns="http://www.w3.org/2000/svg">
    <path fill-rule="evenodd" clip-rule="evenodd" d="M7.89538 0.387486C12.8158 -0.380231 17.4075 2.97199 18.1752 7.89246C18.943 12.8129 15.5907 17.4046 10.6703 18.1723C9.50216 18.3562 8.30926 18.3078 7.15988 18.03C6.0105 17.7521 4.92721 17.2503 3.97205 16.5532C3.01689 15.8561 2.20861 14.9775 1.59351 13.9676C0.978412 12.9577 0.568566 11.8363 0.387445 10.6678C-0.380272 5.74733 2.97491 1.1552 7.89538 0.387486ZM14.3952 4.79921C14.2273 4.82485 14.0731 4.90672 13.9578 5.03142L7.2217 12.0563L4.06169 9.22007C3.32164 8.62201 2.38552 9.66681 3.06094 10.3372L7.30141 14.1435L15.0412 6.06931C15.1526 5.95732 15.2257 5.81303 15.2503 5.65701C15.2748 5.501 15.2495 5.34121 15.1779 5.20044C15.1063 5.05967 14.9921 4.9451 14.8515 4.87305C14.711 4.801 14.5513 4.77516 14.3952 4.79921Z" fill="#34CA00"/>
</svg>
