<svg width="19" height="14" viewBox="0 0 19 14" fill="none" xmlns="http://www.w3.org/2000/svg">
<path d="M9.49998 0.052002C9.68096 0.0520441 9.85779 0.106275 10.0077 0.207708C10.1576 0.309142 10.2736 0.453131 10.341 0.621127C10.7687 1.69171 11.2992 2.36717 11.8393 2.79371C12.3758 3.22025 12.9655 3.43413 13.5672 3.51146C14.8082 3.67217 16.0818 3.25529 16.8684 2.9085L16.8889 2.90004C17.0013 2.8505 17.127 2.79492 17.2345 2.75504H17.2406C17.4524 2.67414 17.6827 2.65445 17.9051 2.69825C18.0648 2.7337 18.215 2.80323 18.3453 2.90209C18.4757 3.00094 18.5831 3.12678 18.6604 3.271C18.8102 3.54892 18.7933 3.82925 18.7872 3.92109V3.9235C18.7788 4.03709 18.7594 4.17 18.7437 4.28479C18.4271 6.49967 18.1057 8.71334 17.7952 10.9282C17.6381 12.0399 17.0472 12.7323 15.9416 13.0525C11.7301 14.2461 7.26982 14.2461 3.05835 13.0525C1.95273 12.7323 1.36064 12.0399 1.20477 10.9282C0.894225 8.71334 0.572808 6.49967 0.256225 4.28479C0.237195 4.16495 0.222685 4.04444 0.212725 3.9235V3.92109C0.193641 3.6968 0.237584 3.47165 0.3396 3.271C0.416811 3.12678 0.524263 3.00094 0.654606 2.90209C0.784949 2.80323 0.935108 2.7337 1.09481 2.69825C1.31716 2.65407 1.54746 2.67333 1.75939 2.75384L1.76423 2.75625C1.87298 2.79492 1.99864 2.8505 2.11102 2.90004L2.13156 2.9085C2.91698 3.25529 4.19056 3.67217 5.43031 3.51267C6.06287 3.43777 6.66227 3.18889 7.16185 2.79371C7.69956 2.36717 8.23002 1.69171 8.65898 0.621127C8.7263 0.453131 8.84239 0.309142 8.99228 0.207708C9.14216 0.106275 9.31899 0.0520441 9.49998 0.052002Z" fill="url(#paint0_linear_695_3930)"/>
<defs>
<linearGradient id="paint0_linear_695_3930" x1="0.208374" y1="0.052002" x2="13.5371" y2="17.8765" gradientUnits="userSpaceOnUse">
<stop stop-color="#FFBF60"/>
<stop offset="1" stop-color="#FF7511"/>
</linearGradient>
</defs>
</svg>
