<svg width="24" height="24" viewBox="0 0 24 24" fill="none" xmlns="http://www.w3.org/2000/svg">
<path d="M9.533 11.15C9.36388 11.3191 9.22976 11.5199 9.13831 11.741C9.04685 11.962 8.99985 12.1988 9 12.438V15H11.578C12.061 15 12.525 14.808 12.867 14.466L20.467 6.862C20.6365 6.69294 20.7709 6.49211 20.8627 6.27101C20.9544 6.04991 21.0016 5.81288 21.0016 5.5735C21.0016 5.33412 20.9544 5.0971 20.8627 4.87599C20.7709 4.65489 20.6365 4.45406 20.467 4.285L19.716 3.534C19.5469 3.36438 19.346 3.2298 19.1248 3.13797C18.9036 3.04614 18.6665 2.99887 18.427 2.99887C18.1875 2.99887 17.9504 3.04614 17.7292 3.13797C17.508 3.2298 17.3071 3.36438 17.138 3.534L9.533 11.15Z" stroke="#4E575F" stroke-width="1.5" stroke-linecap="round" stroke-linejoin="round"/>
<path d="M21 12C21 16.243 21 18.364 19.682 19.682C18.364 21 16.242 21 12 21C7.758 21 5.636 21 4.318 19.682C3 18.364 3 16.242 3 12C3 7.758 3 5.636 4.318 4.318C5.636 3 7.758 3 12 3" stroke="#4E575F" stroke-width="1.5" stroke-linecap="round" stroke-linejoin="round"/>
</svg>
