<svg width="18" height="17" viewBox="0 0 18 17" fill="none" xmlns="http://www.w3.org/2000/svg">
<path d="M17.4444 16.4333C17.4444 16.7465 17.191 17 16.8778 17C16.8744 16.9994 16.87 16.9994 16.8667 17H14.6C14.2868 17 14.0333 16.7465 14.0333 16.4333C14.0333 9.24652 8.18683 3.4 1.00002 3.4C0.6868 3.4 0.43335 3.14655 0.43335 2.83333V0.566667C0.43335 0.253451 0.6868 0 1.00002 0C10.0224 0 17.3703 7.30967 17.4328 16.3182C17.4405 16.3553 17.4444 16.394 17.4444 16.4333ZM11.7661 16.3171C11.7036 10.4335 6.898 5.66667 1.00002 5.66667C0.6868 5.66667 0.43335 5.92012 0.43335 6.23333V8.5C0.43335 8.81322 0.6868 9.06667 1.00002 9.06667C5.06187 9.06667 8.36668 12.3715 8.36668 16.4333C8.36668 16.7465 8.62013 17 8.93335 17H11.2C11.2033 16.9994 11.2078 16.9994 11.2111 17C11.5243 17 11.7778 16.7465 11.7778 16.4333C11.7778 16.3935 11.7739 16.3548 11.7661 16.3171ZM1.00002 11.3333C0.6868 11.3333 0.43335 11.5868 0.43335 11.9V16.4333C0.43335 16.7465 0.6868 17 1.00002 17H5.53335C5.84657 17 6.10002 16.7465 6.10002 16.4333C6.10002 13.621 3.81232 11.3333 1.00002 11.3333Z" fill="#B3BAC1"/>
</svg>
