<svg width="21" height="21" viewBox="0 0 21 21" fill="none" xmlns="http://www.w3.org/2000/svg">
<path fill-rule="evenodd" clip-rule="evenodd" d="M14.2649 2.40601H6.69438C4.05888 2.40601 2.40601 4.27326 2.40601 6.91576V14.0435C2.40601 16.686 4.05188 18.5533 6.69438 18.5533H14.2605C16.9074 18.5533 18.5524 16.686 18.5524 14.0435V6.91576C18.5559 4.27326 16.91 2.40601 14.2649 2.40601Z" stroke="#454545" stroke-width="1.5" stroke-linecap="round" stroke-linejoin="round"/>
<path fill-rule="evenodd" clip-rule="evenodd" d="M9.3652 7.68678C9.3652 8.57928 8.64245 9.30203 7.74995 9.30203C6.85833 9.30203 6.1347 8.57928 6.1347 7.68678C6.1347 6.79428 6.85833 6.07153 7.74995 6.07153C8.64158 6.07241 9.36433 6.79516 9.3652 7.68678Z" stroke="#454545" stroke-width="1.5" stroke-linecap="round" stroke-linejoin="round"/>
<path d="M18.5561 13.0822C17.7485 12.2509 16.1954 10.5718 14.5066 10.5718C12.817 10.5718 11.8431 14.2757 10.2182 14.2757C8.59337 14.2757 7.11725 12.6009 5.81525 13.6745C4.51325 14.7473 3.28125 16.9409 3.28125 16.9409" stroke="#454545" stroke-width="1.5" stroke-linecap="round" stroke-linejoin="round"/>
</svg>
