<svg width="37" height="37" viewBox="0 0 37 37" fill="none" xmlns="http://www.w3.org/2000/svg">
<path fill-rule="evenodd" clip-rule="evenodd" d="M18.595 0.583984H18.405C14.5567 0.583984 11.5417 0.583984 9.18837 0.900651C6.78171 1.22398 4.88171 1.90065 3.39004 3.39065C1.89837 4.88232 1.22337 6.78232 0.900041 9.19065C0.583374 11.5423 0.583374 14.5573 0.583374 18.4056V18.5956C0.583374 22.444 0.583374 25.459 0.900041 27.8123C1.22337 30.219 1.90004 32.119 3.39004 33.6106C4.88171 35.1023 6.78171 35.7773 9.19004 36.1006C11.5417 36.4173 14.5567 36.4173 18.405 36.4173H18.595C22.4434 36.4173 25.4584 36.4173 27.8117 36.1006C30.2184 35.7773 32.1184 35.1006 33.61 33.6106C35.1017 32.119 35.7767 30.219 36.1 27.8106C36.4167 25.459 36.4167 22.444 36.4167 18.5956V18.4056C36.4167 14.5573 36.4167 11.5423 36.1 9.18898C35.7767 6.78232 35.1 4.88232 33.61 3.39065C32.1184 1.89898 30.2184 1.22398 27.81 0.900651C25.4584 0.583984 22.4434 0.583984 18.595 0.583984ZM5.15837 5.15898C6.10837 4.20898 7.39171 3.66398 9.52337 3.37732C11.69 3.08732 14.5367 3.08398 18.5 3.08398C22.4634 3.08398 25.31 3.08732 27.4767 3.37732C29.6084 3.66398 30.8934 4.21065 31.8434 5.15898C32.7917 6.10898 33.3367 7.39232 33.6234 9.52398C33.9134 11.6906 33.9167 14.5373 33.9167 18.5006L33.915 20.634L33.545 20.584C28.805 19.9273 24.4684 22.3906 22.2584 26.1056C19.4084 18.8973 11.88 13.9806 3.46837 15.189L3.09171 15.2423C3.11004 12.9006 3.17337 11.044 3.37671 9.52398C3.66337 7.39232 4.21004 6.10898 5.15837 5.15898Z" fill="#4E575F"/>
</svg>
