<svg width="25" height="24" viewBox="0 0 25 24" fill="none" xmlns="http://www.w3.org/2000/svg">
<path d="M16.234 5.52941H13.2V3.17647C13.2 2.52677 12.6627 2 12 2C11.3373 2 10.8 2.52677 10.8 3.17647V5.52941H7.76602C3.48398 5.52941 0 8.94508 0 13.1432V16.1176C0 19.361 2.6918 22 6 22H18C21.3082 22 24 19.361 24 16.1176V13.1432C24 8.94508 20.516 5.52941 16.234 5.52941ZM9.6 14.9412H8.4V16.1176C8.4 16.7673 7.8627 17.2941 7.2 17.2941C6.5373 17.2941 6 16.7673 6 16.1176V14.9412H4.8C4.1373 14.9412 3.6 14.4144 3.6 13.7647C3.6 13.115 4.1373 12.5882 4.8 12.5882H6V11.4118C6 10.7621 6.5373 10.2353 7.2 10.2353C7.8627 10.2353 8.4 10.7621 8.4 11.4118V12.5882H9.6C10.2627 12.5882 10.8 13.115 10.8 13.7647C10.8 14.4144 10.2627 14.9412 9.6 14.9412ZM16.8 10.2426C17.4628 10.2426 18 10.7693 18 11.4191C18 12.0688 17.4628 12.5956 16.8 12.5956C16.1372 12.5956 15.6 12.0688 15.6 11.4191C15.6 10.7693 16.1372 10.2426 16.8 10.2426ZM14.4 14.9485C13.7372 14.9485 13.2 14.4217 13.2 13.772C13.2 13.1223 13.7372 12.5956 14.4 12.5956C15.0628 12.5956 15.6 13.1223 15.6 13.772C15.6 14.4217 15.0628 14.9485 14.4 14.9485ZM16.8 17.2946C16.1372 17.2946 15.6 16.7679 15.6 16.1182C15.6 15.4684 16.1372 14.9417 16.8 14.9417C17.4628 14.9417 18 15.4684 18 16.1182C18 16.7679 17.4628 17.2946 16.8 17.2946ZM19.2 14.9417C18.5372 14.9417 18 14.415 18 13.7652C18 13.1155 18.5372 12.5887 19.2 12.5887C19.8628 12.5887 20.4 13.1155 20.4 13.7652C20.4 14.415 19.8628 14.9417 19.2 14.9417Z" fill="#4E575F"/>
</svg>
