<svg width="18" height="15" viewBox="0 0 18 15" fill="none" xmlns="http://www.w3.org/2000/svg">
<path d="M9.83172 1.92185L9.15364 2.60158L8.47226 1.9202C7.63865 1.0867 6.50807 0.618486 5.32924 0.618564C4.15042 0.618641 3.0199 1.087 2.1864 1.92061C1.3529 2.75422 0.884688 3.8848 0.884766 5.06363C0.884843 6.24245 1.3532 7.37297 2.18682 8.20647L8.71537 14.735C8.83166 14.8512 8.98929 14.9164 9.15364 14.9164C9.318 14.9164 9.47563 14.8512 9.59191 14.735L16.1263 8.20482C16.9589 7.37113 17.4265 6.24101 17.4263 5.06275C17.4262 3.88449 16.9583 2.75449 16.1254 1.92103C15.7123 1.5076 15.2217 1.17964 14.6818 0.955875C14.1418 0.732114 13.5631 0.616943 12.9786 0.616943C12.3941 0.616943 11.8153 0.732114 11.2754 0.955875C10.7354 1.17964 10.2449 1.5076 9.83172 1.92103V1.92185ZM15.2464 7.32993L9.15364 13.4202L3.06335 7.32993C2.76321 7.03296 2.52471 6.6796 2.36157 6.29015C2.19844 5.90071 2.11388 5.48286 2.11275 5.06063C2.11163 4.6384 2.19397 4.22011 2.35503 3.8298C2.51609 3.4395 2.7527 3.08487 3.05127 2.78631C3.34983 2.48774 3.70446 2.25113 4.09476 2.09007C4.48507 1.929 4.90336 1.84667 5.32559 1.84779C5.74782 1.84892 6.16567 1.93347 6.55511 2.09661C6.94456 2.25975 7.29792 2.49824 7.59489 2.79839L8.71785 3.92053C8.77628 3.97902 8.84581 4.02524 8.92236 4.05647C8.9989 4.08771 9.08092 4.10332 9.16359 4.10239C9.24626 4.10147 9.3279 4.08403 9.40373 4.05109C9.47956 4.01815 9.54804 3.97039 9.60514 3.9106L10.7083 2.79839C11.3163 2.23243 12.1202 1.92434 12.9507 1.93896C13.7813 1.95357 14.5738 2.28974 15.1615 2.87675C15.7493 3.46376 16.0865 4.25585 16.1022 5.08638C16.1178 5.91692 15.8108 6.72116 15.2456 7.32993H15.2464Z" fill="#4E575F"/>
</svg>
