<svg width="25" height="24" viewBox="0 0 25 24" fill="none" xmlns="http://www.w3.org/2000/svg">
<path d="M13.5984 2.75137C13.1298 2.28275 12.37 2.28275 11.9014 2.75137L3.50137 11.1514C3.03275 11.62 3.03275 12.3798 3.50137 12.8484C3.97 13.3171 4.7298 13.3171 5.19843 12.8484L5.5499 12.497V20.3999C5.5499 21.0626 6.08716 21.5999 6.7499 21.5999H9.1499C9.81264 21.5999 10.3499 21.0626 10.3499 20.3999V17.9999C10.3499 17.3372 10.8872 16.7999 11.5499 16.7999H13.9499C14.6126 16.7999 15.1499 17.3372 15.1499 17.9999V20.3999C15.1499 21.0626 15.6872 21.5999 16.3499 21.5999H18.7499C19.4126 21.5999 19.9499 21.0626 19.9499 20.3999V12.497L20.3014 12.8484C20.77 13.3171 21.5298 13.3171 21.9984 12.8484C22.4671 12.3798 22.4671 11.62 21.9984 11.1514L13.5984 2.75137Z" fill="#EBF8FF"/>
</svg>
