<svg width="20" height="20" viewBox="0 0 20 20" fill="none" xmlns="http://www.w3.org/2000/svg">
<path d="M13.1067 19.1601H7.05334V10.6854C7.05334 10.3511 7.32436 10.0801 7.65868 10.0801H12.5013C12.8357 10.0801 13.1067 10.3511 13.1067 10.6854V19.1601Z" stroke="#FFBC00" stroke-width="1.5" stroke-linecap="round" stroke-linejoin="round"/>
<path d="M18.5547 19.16H13.1067V16.2342C13.1067 15.8999 13.3777 15.6289 13.712 15.6289H18.5547C18.889 15.6289 19.16 15.8999 19.16 16.2342V18.5547C19.16 18.889 18.889 19.16 18.5547 19.16Z" stroke="#FFBC00" stroke-width="1.5" stroke-linecap="round" stroke-linejoin="round"/>
<path d="M7.05334 19.1602V14.2167C7.05334 13.8823 6.78232 13.6113 6.448 13.6113H1.60533C1.27102 13.6113 1 13.8823 1 14.2167V18.5549C1 18.8892 1.27102 19.1602 1.60533 19.1602H7.05334Z" stroke="#FFBC00" stroke-width="1.5" stroke-linecap="round" stroke-linejoin="round"/>
<path d="M8.87492 3.13204L9.7921 1.18725C9.90984 0.937583 10.25 0.937583 10.3678 1.18725L11.285 3.13204L13.3361 3.44582C13.5994 3.48609 13.7042 3.82466 13.5137 4.01889L12.0297 5.53163L12.3799 7.66875C12.4249 7.9432 12.1497 8.15252 11.9142 8.02287L10.0799 7.0133L8.24568 8.02287C8.01021 8.15252 7.73496 7.9432 7.77994 7.66875L8.13016 5.53163L6.6462 4.01889C6.45567 3.82466 6.56056 3.48609 6.82373 3.44582L8.87492 3.13204Z" stroke="#FFBC00" stroke-width="1.5" stroke-linecap="round" stroke-linejoin="round"/>
</svg>
