<svg width="25" height="24" viewBox="0 0 25 24" fill="none" xmlns="http://www.w3.org/2000/svg">
<path d="M7.43208 21.0001C5.99466 21.0001 4.76718 20.4913 3.74964 19.4738C2.73211 18.4562 2.22296 17.2284 2.22218 15.7902C2.22218 14.3752 2.71659 13.1621 3.7054 12.1508C4.69422 11.1395 5.89608 10.6183 7.311 10.5872C7.46002 10.5872 7.60943 10.5985 7.75923 10.621C7.90825 10.6435 8.05727 10.6695 8.20629 10.699L5.06056 4.35166C4.89602 4.0381 4.903 3.73424 5.08152 3.44008C5.26003 3.14669 5.5278 3 5.88483 3H8.76512C9.12215 3 9.45007 3.09391 9.74889 3.28174C10.0485 3.46957 10.2825 3.72027 10.4509 4.03383L12.7002 8.55102L14.9471 4.03383C15.1163 3.72027 15.3507 3.46957 15.6503 3.28174C15.9492 3.09391 16.2771 3 16.6341 3H19.4958C19.8528 3 20.1241 3.14669 20.3096 3.44008C20.4951 3.73501 20.5059 4.03888 20.3422 4.35166L17.222 10.6187C17.3571 10.5884 17.4956 10.5659 17.6377 10.5512C17.7789 10.5356 17.9245 10.5279 18.0743 10.5279C19.4993 10.5643 20.7062 11.0882 21.695 12.0996C22.6838 13.1109 23.1782 14.3314 23.1782 15.7611C23.1782 17.2179 22.6694 18.4555 21.6519 19.4738C20.6344 20.4921 19.3968 21.0008 17.9392 21.0001C17.7196 21.0001 17.4952 20.9876 17.2663 20.9628C17.0373 20.9387 16.8208 20.8922 16.6166 20.8231C17.5341 20.4234 18.1779 19.7439 18.5481 18.7845C18.9183 17.8252 19.1034 16.8174 19.1034 15.7611C19.1034 13.9744 18.4829 12.4605 17.2418 11.2194C16.0008 9.97836 14.4869 9.35782 12.7002 9.35782C10.9135 9.35782 9.39962 9.97836 8.15856 11.2194C6.9175 12.4605 6.29697 13.9744 6.29697 15.7611C6.29697 16.8267 6.46772 17.852 6.80922 18.8369C7.15073 19.8226 7.80658 20.4847 8.77676 20.8231C8.55789 20.8922 8.33785 20.9387 8.11665 20.9628C7.89544 20.9869 7.66726 20.9993 7.43208 21.0001ZM12.7002 21.0001C11.2449 21.0001 10.0081 20.4909 8.98981 19.4726C7.97151 18.4543 7.46197 17.2171 7.46119 15.7611C7.46041 14.305 7.96995 13.0682 8.98981 12.0507C10.0097 11.0331 11.2465 10.5236 12.7002 10.522C14.1539 10.5205 15.3911 11.03 16.4117 12.0507C17.4324 13.0713 17.9415 14.3081 17.9392 15.7611C17.9369 17.214 17.4277 18.4512 16.4117 19.4726C15.3958 20.494 14.1586 21.0032 12.7002 21.0001ZM12.7002 17.0417L13.9471 17.9847C14.0488 18.0515 14.1427 18.0526 14.2288 17.9882C14.315 17.9238 14.339 17.8384 14.301 17.7321L13.8376 16.179L15.0624 15.2954C15.1633 15.2286 15.1944 15.1432 15.1555 15.0392C15.1167 14.9352 15.0422 14.8832 14.932 14.8832H13.4104L12.9237 13.2603C12.8849 13.1547 12.8104 13.102 12.7002 13.102C12.59 13.102 12.5155 13.1547 12.4767 13.2603L11.9912 14.8832H10.4684C10.3582 14.8832 10.2837 14.9352 10.2448 15.0392C10.206 15.1432 10.2371 15.2286 10.338 15.2954L11.5627 16.1802L11.0994 17.7309C11.0606 17.8373 11.0846 17.9226 11.1716 17.9871C11.2585 18.0515 11.3524 18.0507 11.4533 17.9847L12.7002 17.0417Z" fill="#B3BAC1"/>
</svg>
