<svg width="24" height="24" viewBox="0 0 24 24" fill="none" xmlns="http://www.w3.org/2000/svg">
<path d="M16.4461 22.6113H7.97434C6.22356 22.6113 4.79944 21.1873 4.79944 19.4364V12.3778C4.79944 10.627 6.22348 9.20288 7.97434 9.20288H16.4461C18.1969 9.20288 19.621 10.6269 19.621 12.3778V19.4364C19.621 21.1872 18.1978 22.6113 16.4461 22.6113ZM7.97434 10.5505C6.96631 10.5505 6.14692 11.3707 6.14692 12.3779V19.4366C6.14692 20.4446 6.96716 21.264 7.97434 21.264H16.4461C17.4533 21.264 18.2736 20.4437 18.2736 19.4366V12.3779C18.2736 11.3699 17.4533 10.5505 16.4461 10.5505H7.97434Z" fill="#70747B"/>
<path d="M17.2383 10.5512H7.185V7.4278C7.185 4.65648 9.44022 2.40039 12.2115 2.40039C14.9829 2.40039 17.239 4.65561 17.239 7.4278V10.5512H17.2383ZM8.53153 9.20378H15.8901V7.42774C15.8901 5.39821 14.2395 3.74772 12.21 3.74772C10.1805 3.74772 8.53089 5.39828 8.53089 7.42774V9.20378H8.53153Z" fill="#70747B"/>
<path d="M13.222 14.9961C13.222 16.3435 11.2009 16.3435 11.2009 14.9961C11.2009 13.6487 13.222 13.6487 13.222 14.9961Z" fill="#70747B"/>
<path d="M16.4471 9.87744H7.97526C6.59419 9.87744 5.47406 10.9975 5.47406 12.3786V19.4373C5.47406 20.8184 6.59408 21.9385 7.97526 21.9385H16.4471C17.8281 21.9385 18.9483 20.8185 18.9483 19.4373V12.3786C18.9483 10.9976 17.8282 9.87744 16.4471 9.87744ZM12.885 17.2461V18.8689C12.885 19.2411 12.5835 19.5426 12.2113 19.5426C11.839 19.5426 11.5376 19.2411 11.5376 18.8689V17.2461C10.5666 16.9539 9.85332 16.0621 9.85332 14.9976C9.85332 13.6973 10.911 12.6395 12.2114 12.6395C13.5117 12.6395 14.5694 13.6972 14.5694 14.9976C14.5694 16.062 13.8559 16.953 12.885 17.2461Z" fill="#70747B"/>
</svg>
