<svg width="30" height="30" viewBox="0 0 30 30" fill="none" xmlns="http://www.w3.org/2000/svg">
<path d="M15.0243 4.00415C11.0203 4.00415 7.76622 7.25818 7.76622 11.2622V14.7582C7.76622 15.4961 7.4517 16.6211 7.0767 17.2501L5.68557 19.5606C4.8267 20.988 5.41945 22.5727 6.99203 23.105C12.2057 24.8469 17.8307 24.8469 23.0444 23.105C24.5082 22.6211 25.1493 20.8913 24.3509 19.5606L22.9598 17.2501C22.5969 16.6211 22.2823 15.4961 22.2823 14.7582V11.2622C22.2823 7.27028 19.0162 4.00415 15.0243 4.00415Z" stroke="#2E3338" stroke-width="1.20968" stroke-miterlimit="10" stroke-linecap="round"/>
<path d="M17.2622 4.35476C16.8872 4.24589 16.5001 4.16121 16.1009 4.11282C14.9396 3.96766 13.8267 4.05234 12.7864 4.35476C13.1372 3.4596 14.0082 2.83057 15.0243 2.83057C16.0404 2.83057 16.9114 3.4596 17.2622 4.35476Z" stroke="#2E3338" stroke-width="1.20968" stroke-miterlimit="10" stroke-linecap="round" stroke-linejoin="round"/>
<path d="M18.6533 23.5403C18.6533 25.5363 17.0203 27.1693 15.0243 27.1693C14.0324 27.1693 13.113 26.758 12.4598 26.1048C11.8066 25.4516 11.3953 24.5322 11.3953 23.5403" stroke="#2E3338" stroke-width="1.20968" stroke-miterlimit="10"/>
</svg>
