<svg width="44" height="44" viewBox="0 0 44 44" fill="none" xmlns="http://www.w3.org/2000/svg">
<g opacity="0.7" clip-path="url(#clip0_765_3637)">
<path d="M28.4958 8.63262C25.1104 7.13326 21.2803 6.98268 17.7877 8.21163C10.1874 10.8743 6.18469 19.1938 8.84734 26.7942C11.51 34.3945 19.8295 38.3972 27.4299 35.7345C31.0527 34.4711 34.0288 31.8262 35.709 28.3768L22.1556 21.755L28.4958 8.63262Z" stroke="#E9E9E9" stroke-width="2.84993" stroke-linejoin="round"/>
<path d="M33.8369 20.6772C34.5491 20.4277 35.133 19.9055 35.4601 19.2255C35.7873 18.5456 35.8309 17.7635 35.5814 17.0513C35.3319 16.3392 34.8097 15.7553 34.1298 15.4281C33.4498 15.101 32.6677 15.0574 31.9555 15.3069C31.2434 15.5563 30.6595 16.0785 30.3324 16.7585C30.0052 17.4385 29.9616 18.2206 30.2111 18.9327C30.4606 19.6449 30.9827 20.2287 31.6627 20.5559C32.3427 20.883 33.1248 20.9267 33.8369 20.6772Z" stroke="#E9E9E9" stroke-width="2.84993" stroke-linejoin="round"/>
<path d="M14.8696 16.0168L16.751 21.3871M13.1251 19.6427L18.4955 17.7613" stroke="#E9E9E9" stroke-width="2.84993" stroke-linecap="round" stroke-linejoin="round"/>
</g>
<defs>
<clipPath id="clip0_765_3637">
<rect width="34.1421" height="34.1421" fill="white" transform="translate(0.400391 11.2881) rotate(-19.3071)"/>
</clipPath>
</defs>
</svg>
