<svg width="16" height="23" viewBox="0 0 16 23" fill="none" xmlns="http://www.w3.org/2000/svg">
<path d="M3.67179 1C2.19811 1 1 2.10027 1 3.45528V19.5434C1 20.8984 2.19811 22 3.67179 22H12.3297C13.8034 22 15 20.8984 15 19.5434V3.45664C15 2.10163 13.8019 1.00136 12.3282 1.00136H3.67326L3.67179 1ZM3.67179 1.67751H12.3297C13.3952 1.67751 14.2632 2.47425 14.2632 3.45528V17.2602H1.73684V3.45528C1.73684 2.4729 2.60484 1.67751 3.67179 1.67751ZM6.50274 3.73848V4.41599H9.47368V3.73848H6.50274ZM1.73684 17.9377H14.2632V19.5461C14.2632 20.5271 13.3966 21.3252 12.3297 21.3252H3.67032C3.15751 21.3245 2.66595 21.1368 2.30348 20.8032C1.94101 20.4697 1.73723 20.0176 1.73684 19.5461V17.9377Z" fill="#454545" stroke="#454545" stroke-width="0.5"/>
</svg>
