<svg width="25" height="24" viewBox="0 0 25 24" fill="none" xmlns="http://www.w3.org/2000/svg">
<path d="M12.25 21C17.4967 21 21.75 16.7467 21.75 11.5C21.75 6.25329 17.4967 2 12.25 2C7.00329 2 2.75 6.25329 2.75 11.5C2.75 16.7467 7.00329 21 12.25 21Z" fill="#4E575F"/>
<path d="M22.0501 22.0001C21.8701 22.0001 21.6901 21.9301 21.5601 21.8001L19.7001 19.9401C19.4301 19.6701 19.4301 19.2301 19.7001 18.9501C19.9701 18.6801 20.4101 18.6801 20.6901 18.9501L22.5501 20.8101C22.8201 21.0801 22.8201 21.5201 22.5501 21.8001C22.4101 21.9301 22.2301 22.0001 22.0501 22.0001Z" fill="#4E575F"/>
</svg>
