<svg width="23" height="21" viewBox="0 0 23 21" fill="none" xmlns="http://www.w3.org/2000/svg">
<path fill-rule="evenodd" clip-rule="evenodd" d="M18.0894 19.9692C20.1965 19.9692 21.9054 18.2615 21.9065 16.1544V16.1521V13.1146C20.5149 13.1146 19.3876 11.9874 19.3865 10.5957C19.3865 9.20525 20.5137 8.07687 21.9054 8.07687H21.9065V5.03937C21.9087 2.93112 20.2021 1.22112 18.095 1.21887H18.0882H4.91224C2.80399 1.21887 1.09512 2.92662 1.09399 5.03487V5.036V8.17475C2.43724 8.1275 3.56337 9.17825 3.61062 10.5215C3.61174 10.5462 3.61287 10.571 3.61287 10.5957C3.61399 11.9851 2.49012 13.1124 1.10074 13.1146H1.09399V16.1521C1.09287 18.2592 2.80174 19.9692 4.90887 19.9692H4.90999H18.0894Z" stroke="#454545" stroke-width="1.5" stroke-linecap="round" stroke-linejoin="round"/>
<path fill-rule="evenodd" clip-rule="evenodd" d="M11.9178 7.19603L12.6108 8.59891C12.6783 8.73616 12.8088 8.83178 12.9607 8.85428L14.5098 9.08041C14.8934 9.13666 15.0453 9.60691 14.7685 9.87578L13.648 10.967C13.5378 11.0739 13.4883 11.228 13.513 11.3799L13.7774 12.9212C13.8427 13.3025 13.4433 13.5928 13.1013 13.4128L11.7164 12.6849C11.5803 12.6129 11.4183 12.6129 11.2822 12.6849L9.89841 13.4128C9.55528 13.5928 9.15591 13.3025 9.22116 12.9212L9.48553 11.3799C9.51141 11.228 9.46078 11.0739 9.35053 10.967L8.23116 9.87578C7.95441 9.60691 8.10628 9.13666 8.48878 9.08041L10.0379 8.85428C10.1898 8.83178 10.3214 8.73616 10.3889 8.59891L11.0808 7.19603C11.2518 6.84953 11.7468 6.84953 11.9178 7.19603Z" stroke="#454545" stroke-width="1.5" stroke-linecap="round" stroke-linejoin="round"/>
</svg>
