<svg width="28" height="29" viewBox="0 0 28 29" fill="none" xmlns="http://www.w3.org/2000/svg">
<rect y="0.529297" width="28" height="28.4706" rx="5.69412" fill="#EBF8FF"/>
<path d="M14.2355 6.22461C9.51841 6.22461 5.69434 10.0487 5.69434 14.7658C5.69434 19.4829 9.51841 23.307 14.2355 23.307C18.9526 23.307 22.7767 19.4829 22.7767 14.7658" stroke="#3ABBFF" stroke-width="1.89804" stroke-linecap="round" stroke-linejoin="round"/>
<path d="M14.2354 10.4941C13.3908 10.4941 12.5651 10.7446 11.8628 11.2139C11.1605 11.6831 10.6132 12.3501 10.2899 13.1304C9.96669 13.9108 9.88212 14.7695 10.0469 15.5979C10.2117 16.4263 10.6184 17.1872 11.2157 17.7845C11.8129 18.3817 12.5739 18.7885 13.4023 18.9533C14.2307 19.118 15.0894 19.0335 15.8697 18.7102C16.6501 18.387 17.317 17.8396 17.7863 17.1373C18.2556 16.435 18.506 15.6094 18.506 14.7647M14.2354 14.7647L17.2248 11.7725" stroke="#3ABBFF" stroke-width="1.89804" stroke-linecap="round" stroke-linejoin="round"/>
<path d="M17.2249 8.7993V11.7764H20.2261L22.7766 9.21402H19.7886V6.22461L17.2249 8.7993Z" stroke="#3ABBFF" stroke-width="1.89804" stroke-linejoin="round"/>
</svg>
