<svg width="18" height="22" viewBox="0 0 18 22" fill="none" xmlns="http://www.w3.org/2000/svg">
<path d="M9.93497 0.87801L17.116 4.67401C18.182 5.23701 18.182 6.76401 17.116 7.32601L15.842 8.00001L17.116 8.67401C18.182 9.23701 18.182 10.764 17.116 11.326L15.842 12L17.116 12.674C18.182 13.237 18.182 14.764 17.116 15.326L9.93497 19.122C9.64687 19.2744 9.32589 19.354 8.99997 19.354C8.67406 19.354 8.35308 19.2744 8.06497 19.122L0.883973 15.326C-0.182027 14.763 -0.182027 13.237 0.883973 12.674L2.15897 12L0.883973 11.326C-0.182027 10.763 -0.182027 9.23701 0.883973 8.67401L2.15897 8.00001L0.883973 7.32601C-0.182027 6.76301 -0.182027 5.23701 0.883973 4.67401L8.06497 0.87801C8.35308 0.725645 8.67406 0.645996 8.99997 0.645996C9.32589 0.645996 9.64687 0.725645 9.93497 0.87801ZM13.702 13.131L9.93497 15.122C9.64687 15.2744 9.32589 15.354 8.99997 15.354C8.67406 15.354 8.35308 15.2744 8.06497 15.122L4.29797 13.132L2.65497 14L8.99997 17.354L15.346 14L13.702 13.131ZM13.702 9.13101L9.93497 11.123C9.67372 11.261 9.38515 11.3393 9.09 11.3525C8.79485 11.3656 8.50045 11.3132 8.22797 11.199L8.06497 11.123L4.29797 9.13101L2.65497 10.001L8.99997 13.353L15.346 10L13.702 9.13101ZM8.99997 2.64601L2.65497 6.00001L8.99997 9.35401L15.346 6.00001L8.99997 2.64601Z" fill="#4E575F"/>
</svg>
