<?xml version="1.0" encoding="UTF-8"?>
<!DOCTYPE svg PUBLIC "-//W3C//DTD SVG 1.1//EN" "http://www.w3.org/Graphics/SVG/1.1/DTD/svg11.dtd">
<svg xmlns="http://www.w3.org/2000/svg" version="1.1" width="1400px" height="1050px" style="shape-rendering:geometricPrecision; text-rendering:geometricPrecision; image-rendering:optimizeQuality; fill-rule:evenodd; clip-rule:evenodd" xmlns:xlink="http://www.w3.org/1999/xlink">
<g><path style="opacity:1" fill="#fefdfd" d="M 176.5,174.5 C 207.167,174.5 237.833,174.5 268.5,174.5C 280.861,181.87 292.861,190.036 304.5,199C 306.256,199.202 307.922,199.702 309.5,200.5C 315.16,204.225 320.493,208.392 325.5,213C 327.134,213.494 328.801,213.66 330.5,213.5C 330.281,214.675 330.614,215.675 331.5,216.5C 337.435,219.49 342.768,223.157 347.5,227.5C 348.545,228.878 349.878,229.878 351.5,230.5C 362.322,237.861 373.322,244.861 384.5,251.5C 385.167,253.5 386.5,254.833 388.5,255.5C 405.883,266.2 422.883,277.533 439.5,289.5C 442.522,291.005 445.522,292.339 448.5,293.5C 448.281,294.675 448.614,295.675 449.5,296.5C 452.69,297.599 455.69,298.932 458.5,300.5C 459.077,303.645 461.077,305.145 464.5,305C 468.762,308.762 473.429,311.929 478.5,314.5C 479.386,315.325 479.719,316.325 479.5,317.5C 483.252,319.066 486.919,320.899 490.5,323C 521.218,344.351 552.218,365.185 583.5,385.5C 584.386,386.325 584.719,387.325 584.5,388.5C 585.833,388.5 587.167,388.5 588.5,388.5C 589.728,391.73 592.061,393.396 595.5,393.5C 595.5,320.5 595.5,247.5 595.5,174.5C 608.833,174.5 622.167,174.5 635.5,174.5C 635.5,267.833 635.5,361.167 635.5,454.5C 481.833,454.5 328.167,454.5 174.5,454.5C 174.5,439.5 174.5,424.5 174.5,409.5C 247.501,409.667 320.501,409.5 393.5,409C 394.731,407.817 394.731,406.651 393.5,405.5C 392.14,404.82 390.807,404.153 389.5,403.5C 387.805,402.989 386.139,402.322 384.5,401.5C 374.978,393.911 364.978,387.077 354.5,381C 352.561,380.092 351.561,378.592 351.5,376.5C 348.522,375.339 345.522,374.005 342.5,372.5C 333.675,365.921 324.675,359.587 315.5,353.5C 310.09,350.466 304.756,347.466 299.5,344.5C 285.5,335.167 271.5,325.833 257.5,316.5C 256.115,315.449 255.115,314.116 254.5,312.5C 249.308,310.617 244.641,307.95 240.5,304.5C 238.688,300.693 235.688,298.36 231.5,297.5C 227.901,296.897 225.568,294.897 224.5,291.5C 223.127,291.657 221.793,291.49 220.5,291C 211.312,283.717 201.646,276.884 191.5,270.5C 188.774,270.145 186.774,268.812 185.5,266.5C 181.93,264.217 178.263,262.217 174.5,260.5C 174.5,249.833 174.5,239.167 174.5,228.5C 176.79,229.456 178.456,231.123 179.5,233.5C 185.549,236.855 191.549,240.188 197.5,243.5C 212.833,254.167 228.167,264.833 243.5,275.5C 249.451,278.812 255.451,282.145 261.5,285.5C 264.126,287.823 266.793,290.157 269.5,292.5C 288.141,304.462 306.808,316.462 325.5,328.5C 325.919,329.672 326.585,330.672 327.5,331.5C 333.824,335.152 340.158,338.819 346.5,342.5C 346.833,343.167 347.167,343.833 347.5,344.5C 360.606,352.039 373.272,360.039 385.5,368.5C 391.827,373.124 398.494,377.457 405.5,381.5C 410.162,386.163 415.496,389.829 421.5,392.5C 422.386,393.325 422.719,394.325 422.5,395.5C 425.016,395.755 427.35,396.589 429.5,398C 434.239,401.077 438.906,404.244 443.5,407.5C 469.479,409.491 495.812,410.158 522.5,409.5C 522.768,407.901 522.434,406.568 521.5,405.5C 519.661,404.418 517.661,403.585 515.5,403C 512.459,401.138 509.792,398.805 507.5,396C 497.746,390.727 488.412,384.893 479.5,378.5C 478.735,376.071 477.069,374.738 474.5,374.5C 435.164,347.721 395.498,321.387 355.5,295.5C 354.585,294.672 353.919,293.672 353.5,292.5C 346.842,288.514 340.176,284.514 333.5,280.5C 333.167,279.833 332.833,279.167 332.5,278.5C 330.096,277.65 327.763,276.65 325.5,275.5C 320.766,271.814 316.099,268.147 311.5,264.5C 303.448,260.293 295.781,255.293 288.5,249.5C 282.176,245.848 275.842,242.181 269.5,238.5C 268.085,235.619 265.751,233.953 262.5,233.5C 251.829,224.833 240.495,217.166 228.5,210.5C 227.585,209.672 226.919,208.672 226.5,207.5C 220.661,205.311 215.327,202.311 210.5,198.5C 209.833,196.5 208.5,195.167 206.5,194.5C 202.832,193.5 199.832,191.5 197.5,188.5C 189.864,184.743 182.864,180.076 176.5,174.5 Z"/></g>
<g><path style="opacity:1" fill="#242d5c" d="M 268.5,174.5 C 377.167,174.5 485.833,174.5 594.5,174.5C 594.667,247.167 594.5,319.834 594,392.5C 592.469,390.703 590.636,389.37 588.5,388.5C 587.167,388.5 585.833,388.5 584.5,388.5C 584.719,387.325 584.386,386.325 583.5,385.5C 552.218,365.185 521.218,344.351 490.5,323C 486.919,320.899 483.252,319.066 479.5,317.5C 479.719,316.325 479.386,315.325 478.5,314.5C 473.429,311.929 468.762,308.762 464.5,305C 461.077,305.145 459.077,303.645 458.5,300.5C 455.69,298.932 452.69,297.599 449.5,296.5C 448.614,295.675 448.281,294.675 448.5,293.5C 445.522,292.339 442.522,291.005 439.5,289.5C 422.883,277.533 405.883,266.2 388.5,255.5C 388.106,253.29 386.773,251.957 384.5,251.5C 373.322,244.861 362.322,237.861 351.5,230.5C 351.5,229.5 351.5,228.5 351.5,227.5C 350.167,227.5 348.833,227.5 347.5,227.5C 342.768,223.157 337.435,219.49 331.5,216.5C 330.614,215.675 330.281,214.675 330.5,213.5C 328.801,213.66 327.134,213.494 325.5,213C 320.493,208.392 315.16,204.225 309.5,200.5C 307.922,199.702 306.256,199.202 304.5,199C 292.861,190.036 280.861,181.87 268.5,174.5 Z"/></g>
<g><path style="opacity:1" fill="#e23044" d="M 637.5,174.5 C 678.833,174.5 720.167,174.5 761.5,174.5C 761.5,267.833 761.5,361.167 761.5,454.5C 914.999,455.5 1068.67,455.833 1222.5,455.5C 1222.5,500.833 1222.5,546.167 1222.5,591.5C 1068.67,591.167 914.999,591.5 761.5,592.5C 761.5,593.167 761.5,593.833 761.5,594.5C 761.5,687.833 761.5,781.167 761.5,874.5C 720.167,874.5 678.833,874.5 637.5,874.5C 637.5,780.5 637.5,686.5 637.5,592.5C 483.167,592.5 328.833,592.5 174.5,592.5C 174.5,546.5 174.5,500.5 174.5,454.5C 328.167,454.5 481.833,454.5 635.5,454.5C 637.498,361.506 638.164,268.173 637.5,174.5 Z"/></g>
<g><path style="opacity:1" fill="#242d5c" d="M 801.5,174.5 C 910.167,174.5 1018.83,174.5 1127.5,174.5C 1119.31,179.732 1110.98,185.065 1102.5,190.5C 1102.14,191.183 1101.8,191.85 1101.5,192.5C 1100.02,192.238 1098.69,192.571 1097.5,193.5C 1089.62,198.933 1081.96,204.6 1074.5,210.5C 1068.7,211.81 1064.04,214.81 1060.5,219.5C 1056.68,220.244 1053.68,222.244 1051.5,225.5C 1049.33,225.75 1047.66,226.75 1046.5,228.5C 1042.33,231.144 1038,233.644 1033.5,236C 1032.32,240.015 1029.65,241.848 1025.5,241.5C 1025.5,242.5 1025.5,243.5 1025.5,244.5C 1024.17,244.5 1022.83,244.5 1021.5,244.5C 1017.86,246.477 1014.53,248.811 1011.5,251.5C 977.291,274.813 942.624,297.98 907.5,321C 906.663,322.011 906.33,323.178 906.5,324.5C 904.599,324.433 902.766,324.767 901,325.5C 895.922,329.771 890.756,333.771 885.5,337.5C 871.833,346.167 858.167,354.833 844.5,363.5C 843.107,365.953 840.941,367.286 838,367.5C 827.139,375.62 816.306,383.287 805.5,390.5C 804.167,390.5 802.833,390.5 801.5,390.5C 801.5,318.5 801.5,246.5 801.5,174.5 Z"/></g>
<g><path style="opacity:1" fill="#f4f3f3" d="M 1127.5,174.5 C 1158.17,174.5 1188.83,174.5 1219.5,174.5C 1209.81,181.456 1199.81,188.123 1189.5,194.5C 1189.17,194.5 1188.83,194.5 1188.5,194.5C 1159.85,192.508 1130.85,191.841 1101.5,192.5C 1101.8,191.85 1102.14,191.183 1102.5,190.5C 1110.98,185.065 1119.31,179.732 1127.5,174.5 Z"/></g>
<g><path style="opacity:1" fill="#fefdfd" d="M 761.5,174.5 C 774.5,174.5 787.5,174.5 800.5,174.5C 800.5,247.167 800.5,319.833 800.5,392.5C 802.553,392.598 804.22,391.931 805.5,390.5C 816.306,383.287 827.139,375.62 838,367.5C 840.941,367.286 843.107,365.953 844.5,363.5C 858.167,354.833 871.833,346.167 885.5,337.5C 890.756,333.771 895.922,329.771 901,325.5C 902.766,324.767 904.599,324.433 906.5,324.5C 906.33,323.178 906.663,322.011 907.5,321C 942.624,297.98 977.291,274.813 1011.5,251.5C 1014.13,250.238 1016.79,248.904 1019.5,247.5C 1020.61,246.735 1021.28,245.735 1021.5,244.5C 1022.83,244.5 1024.17,244.5 1025.5,244.5C 1025.5,243.5 1025.5,242.5 1025.5,241.5C 1029.65,241.848 1032.32,240.015 1033.5,236C 1038,233.644 1042.33,231.144 1046.5,228.5C 1048.85,228.408 1050.51,227.408 1051.5,225.5C 1053.68,222.244 1056.68,220.244 1060.5,219.5C 1062.19,218.989 1063.86,218.322 1065.5,217.5C 1068.45,214.986 1071.45,212.653 1074.5,210.5C 1081.96,204.6 1089.62,198.933 1097.5,193.5C 1098.69,192.571 1100.02,192.238 1101.5,192.5C 1130.85,191.841 1159.85,192.508 1188.5,194.5C 1185.74,197.328 1182.74,199.661 1179.5,201.5C 1173.74,204.437 1168.41,208.104 1163.5,212.5C 1161.93,213.309 1160.26,213.643 1158.5,213.5C 1158.67,214.822 1158.34,215.989 1157.5,217C 1149.68,220.89 1142.68,225.723 1136.5,231.5C 1129.9,234.956 1123.57,238.623 1117.5,242.5C 1116.59,243.328 1115.92,244.328 1115.5,245.5C 1109.57,248.175 1104.24,251.675 1099.5,256C 1094.46,258.849 1089.46,261.682 1084.5,264.5C 1083.12,265.551 1082.12,266.884 1081.5,268.5C 1075.5,271.833 1069.5,275.167 1063.5,278.5C 1062.12,279.551 1061.12,280.884 1060.5,282.5C 1055.18,284.329 1050.52,287.163 1046.5,291C 1045.21,291.49 1043.87,291.657 1042.5,291.5C 1042.72,292.675 1042.39,293.675 1041.5,294.5C 1037.17,296.667 1033.17,299.334 1029.5,302.5C 1027.02,304.076 1024.35,305.076 1021.5,305.5C 1020.04,309.615 1017.04,311.948 1012.5,312.5C 1009.36,315.625 1005.7,318.125 1001.5,320C 999.009,323.505 995.676,325.672 991.5,326.5C 990.614,327.325 990.281,328.325 990.5,329.5C 984.174,333.155 977.841,336.821 971.5,340.5C 939.453,362.643 907.119,384.309 874.5,405.5C 872.824,406.183 872.157,407.517 872.5,409.5C 899.521,410.158 926.188,409.491 952.5,407.5C 954.121,407.213 955.121,406.213 955.5,404.5C 957.707,403.365 960.04,402.699 962.5,402.5C 962.281,401.325 962.614,400.325 963.5,399.5C 972.961,393.788 981.961,387.622 990.5,381C 1009.24,369.222 1027.91,357.556 1046.5,346C 1047.31,344.686 1048.31,343.519 1049.5,342.5C 1055.64,339.185 1061.64,335.685 1067.5,332C 1072.6,328.152 1077.6,324.152 1082.5,320C 1088.92,316.437 1095.25,312.604 1101.5,308.5C 1102.39,307.675 1102.72,306.675 1102.5,305.5C 1104.96,305.301 1107.29,304.635 1109.5,303.5C 1133.9,287.064 1158.24,270.564 1182.5,254C 1183.79,253.51 1185.13,253.343 1186.5,253.5C 1186.33,252.178 1186.66,251.011 1187.5,250C 1192.2,248.703 1196.2,246.203 1199.5,242.5C 1201.54,241.959 1203.54,241.292 1205.5,240.5C 1211.23,236.08 1216.9,231.747 1222.5,227.5C 1223.17,227.5 1223.83,227.5 1224.5,227.5C 1224.5,237.833 1224.5,248.167 1224.5,258.5C 1222.82,258.285 1221.82,258.952 1221.5,260.5C 1210.87,266.259 1200.87,272.926 1191.5,280.5C 1187.52,282.706 1183.52,284.706 1179.5,286.5C 1179.72,287.675 1179.39,288.675 1178.5,289.5C 1175.48,290.005 1173.15,291.505 1171.5,294C 1168.69,294.605 1166.36,295.938 1164.5,298C 1163.21,298.49 1161.87,298.657 1160.5,298.5C 1160.32,300.606 1159.32,302.272 1157.5,303.5C 1146.89,309.147 1136.89,315.814 1127.5,323.5C 1109.94,334.044 1092.61,345.044 1075.5,356.5C 1075.08,357.672 1074.41,358.672 1073.5,359.5C 1065.67,363.721 1058.34,368.721 1051.5,374.5C 1050.02,374.238 1048.69,374.571 1047.5,375.5C 1044.78,377.576 1042.11,379.576 1039.5,381.5C 1036.39,382.126 1034.06,383.792 1032.5,386.5C 1028.96,388.77 1025.29,390.77 1021.5,392.5C 1021.5,393.5 1021.5,394.5 1021.5,395.5C 1018.98,395.755 1016.65,396.589 1014.5,398C 1011.24,400.774 1007.91,403.274 1004.5,405.5C 1004.17,405.5 1003.83,405.5 1003.5,405.5C 1003.17,405.5 1002.83,405.5 1002.5,405.5C 1001.57,406.568 1001.23,407.901 1001.5,409.5C 1075.83,409.5 1150.17,409.5 1224.5,409.5C 1224.5,424.5 1224.5,439.5 1224.5,454.5C 1070.17,454.5 915.833,454.5 761.5,454.5C 761.5,361.167 761.5,267.833 761.5,174.5 Z"/></g>
<g><path style="opacity:1" fill="#69698d" d="M 800.5,174.5 C 800.833,174.5 801.167,174.5 801.5,174.5C 801.5,246.5 801.5,318.5 801.5,390.5C 802.833,390.5 804.167,390.5 805.5,390.5C 804.22,391.931 802.553,392.598 800.5,392.5C 800.5,319.833 800.5,247.167 800.5,174.5 Z"/></g>
<g><path style="opacity:1" fill="#e23345" d="M 176.5,174.5 C 182.864,180.076 189.864,184.743 197.5,188.5C 199.832,191.5 202.832,193.5 206.5,194.5C 206.894,196.71 208.227,198.043 210.5,198.5C 215.327,202.311 220.661,205.311 226.5,207.5C 226.919,208.672 227.585,209.672 228.5,210.5C 240.495,217.166 251.829,224.833 262.5,233.5C 265.751,233.953 268.085,235.619 269.5,238.5C 275.842,242.181 282.176,245.848 288.5,249.5C 295.781,255.293 303.448,260.293 311.5,264.5C 316.099,268.147 320.766,271.814 325.5,275.5C 327.763,276.65 330.096,277.65 332.5,278.5C 332.833,279.167 333.167,279.833 333.5,280.5C 340.176,284.514 346.842,288.514 353.5,292.5C 353.919,293.672 354.585,294.672 355.5,295.5C 395.498,321.387 435.164,347.721 474.5,374.5C 475.853,376.183 477.52,377.516 479.5,378.5C 488.412,384.893 497.746,390.727 507.5,396C 509.792,398.805 512.459,401.138 515.5,403C 517.661,403.585 519.661,404.418 521.5,405.5C 495.855,407.491 469.855,408.158 443.5,407.5C 438.906,404.244 434.239,401.077 429.5,398C 427.35,396.589 425.016,395.755 422.5,395.5C 422.719,394.325 422.386,393.325 421.5,392.5C 415.496,389.829 410.162,386.163 405.5,381.5C 398.494,377.457 391.827,373.124 385.5,368.5C 373.272,360.039 360.606,352.039 347.5,344.5C 347.167,343.833 346.833,343.167 346.5,342.5C 340.158,338.819 333.824,335.152 327.5,331.5C 326.585,330.672 325.919,329.672 325.5,328.5C 306.808,316.462 288.141,304.462 269.5,292.5C 266.793,290.157 264.126,287.823 261.5,285.5C 255.451,282.145 249.451,278.812 243.5,275.5C 228.167,264.833 212.833,254.167 197.5,243.5C 191.549,240.188 185.549,236.855 179.5,233.5C 178.456,231.123 176.79,229.456 174.5,228.5C 173.847,210.136 174.513,192.136 176.5,174.5 Z"/></g>
<g><path style="opacity:1" fill="#e23345" d="M 1219.5,174.5 C 1220.5,174.5 1221.5,174.5 1222.5,174.5C 1222.5,192.167 1222.5,209.833 1222.5,227.5C 1216.9,231.747 1211.23,236.08 1205.5,240.5C 1203.54,241.292 1201.54,241.959 1199.5,242.5C 1196.2,246.203 1192.2,248.703 1187.5,250C 1186.66,251.011 1186.33,252.178 1186.5,253.5C 1185.13,253.343 1183.79,253.51 1182.5,254C 1158.24,270.564 1133.9,287.064 1109.5,303.5C 1107.29,304.635 1104.96,305.301 1102.5,305.5C 1102.72,306.675 1102.39,307.675 1101.5,308.5C 1095.25,312.604 1088.92,316.437 1082.5,320C 1077.6,324.152 1072.6,328.152 1067.5,332C 1061.64,335.685 1055.64,339.185 1049.5,342.5C 1048.31,343.519 1047.31,344.686 1046.5,346C 1027.91,357.556 1009.24,369.222 990.5,381C 981.961,387.622 972.961,393.788 963.5,399.5C 962.614,400.325 962.281,401.325 962.5,402.5C 960.04,402.699 957.707,403.365 955.5,404.5C 955.121,406.213 954.121,407.213 952.5,407.5C 926.145,408.158 900.145,407.491 874.5,405.5C 907.119,384.309 939.453,362.643 971.5,340.5C 977.841,336.821 984.174,333.155 990.5,329.5C 990.281,328.325 990.614,327.325 991.5,326.5C 995.676,325.672 999.009,323.505 1001.5,320C 1005.7,318.125 1009.36,315.625 1012.5,312.5C 1017.04,311.948 1020.04,309.615 1021.5,305.5C 1024.35,305.076 1027.02,304.076 1029.5,302.5C 1033.17,299.334 1037.17,296.667 1041.5,294.5C 1042.39,293.675 1042.72,292.675 1042.5,291.5C 1043.87,291.657 1045.21,291.49 1046.5,291C 1050.52,287.163 1055.18,284.329 1060.5,282.5C 1061.12,280.884 1062.12,279.551 1063.5,278.5C 1069.5,275.167 1075.5,271.833 1081.5,268.5C 1082.12,266.884 1083.12,265.551 1084.5,264.5C 1089.46,261.682 1094.46,258.849 1099.5,256C 1104.24,251.675 1109.57,248.175 1115.5,245.5C 1115.92,244.328 1116.59,243.328 1117.5,242.5C 1123.57,238.623 1129.9,234.956 1136.5,231.5C 1142.68,225.723 1149.68,220.89 1157.5,217C 1158.34,215.989 1158.67,214.822 1158.5,213.5C 1160.26,213.643 1161.93,213.309 1163.5,212.5C 1168.41,208.104 1173.74,204.437 1179.5,201.5C 1183.99,200.837 1187.33,198.504 1189.5,194.5C 1199.81,188.123 1209.81,181.456 1219.5,174.5 Z"/></g>
<g><path style="opacity:1" fill="#e26060" d="M 1222.5,174.5 C 1224.49,191.802 1225.15,209.468 1224.5,227.5C 1223.83,227.5 1223.17,227.5 1222.5,227.5C 1222.5,209.833 1222.5,192.167 1222.5,174.5 Z"/></g>
<g><path style="opacity:1" fill="#f3a7a3" d="M 206.5,194.5 C 208.5,195.167 209.833,196.5 210.5,198.5C 208.227,198.043 206.894,196.71 206.5,194.5 Z"/></g>
<g><path style="opacity:1" fill="#ea7576" d="M 1188.5,194.5 C 1188.83,194.5 1189.17,194.5 1189.5,194.5C 1187.33,198.504 1183.99,200.837 1179.5,201.5C 1182.74,199.661 1185.74,197.328 1188.5,194.5 Z"/></g>
<g><path style="opacity:1" fill="#aeacc1" d="M 1074.5,210.5 C 1071.45,212.653 1068.45,214.986 1065.5,217.5C 1063.86,218.322 1062.19,218.989 1060.5,219.5C 1064.04,214.81 1068.7,211.81 1074.5,210.5 Z"/></g>
<g><path style="opacity:1" fill="#9e9cb4" d="M 1051.5,225.5 C 1050.51,227.408 1048.85,228.408 1046.5,228.5C 1047.66,226.75 1049.33,225.75 1051.5,225.5 Z"/></g>
<g><path style="opacity:1" fill="#555b80" d="M 594.5,174.5 C 594.833,174.5 595.167,174.5 595.5,174.5C 595.5,247.5 595.5,320.5 595.5,393.5C 592.061,393.396 589.728,391.73 588.5,388.5C 590.636,389.37 592.469,390.703 594,392.5C 594.5,319.834 594.667,247.167 594.5,174.5 Z"/></g>
<g><path style="opacity:1" fill="#f7ccc2" d="M 635.5,174.5 C 636.167,174.5 636.833,174.5 637.5,174.5C 638.164,268.173 637.498,361.506 635.5,454.5C 635.5,361.167 635.5,267.833 635.5,174.5 Z"/></g>
<g><path style="opacity:1" fill="#a3a1b9" d="M 347.5,227.5 C 348.833,227.5 350.167,227.5 351.5,227.5C 351.5,228.5 351.5,229.5 351.5,230.5C 349.878,229.878 348.545,228.878 347.5,227.5 Z"/></g>
<g><path style="opacity:1" fill="#6f6f92" d="M 1021.5,244.5 C 1021.28,245.735 1020.61,246.735 1019.5,247.5C 1016.79,248.904 1014.13,250.238 1011.5,251.5C 1014.53,248.811 1017.86,246.477 1021.5,244.5 Z"/></g>
<g><path style="opacity:1" fill="#8683a1" d="M 384.5,251.5 C 386.773,251.957 388.106,253.29 388.5,255.5C 386.5,254.833 385.167,253.5 384.5,251.5 Z"/></g>
<g><path style="opacity:1" fill="#4b4c76" d="M 1224.5,258.5 C 1224.5,308.167 1224.5,357.833 1224.5,407.5C 1150.49,408.164 1076.83,407.497 1003.5,405.5C 1003.83,405.5 1004.17,405.5 1004.5,405.5C 1077,406.499 1149.66,406.833 1222.5,406.5C 1222.83,357.664 1222.5,308.997 1221.5,260.5C 1221.82,258.952 1222.82,258.285 1224.5,258.5 Z"/></g>
<g><path style="opacity:1" fill="#252d5c" d="M 174.5,260.5 C 178.263,262.217 181.93,264.217 185.5,266.5C 186.774,268.812 188.774,270.145 191.5,270.5C 201.646,276.884 211.312,283.717 220.5,291C 221.793,291.49 223.127,291.657 224.5,291.5C 225.568,294.897 227.901,296.897 231.5,297.5C 233.91,300.575 236.91,302.908 240.5,304.5C 244.641,307.95 249.308,310.617 254.5,312.5C 255.115,314.116 256.115,315.449 257.5,316.5C 271.5,325.833 285.5,335.167 299.5,344.5C 304.756,347.466 310.09,350.466 315.5,353.5C 324.675,359.587 333.675,365.921 342.5,372.5C 345.522,374.005 348.522,375.339 351.5,376.5C 351.561,378.592 352.561,380.092 354.5,381C 364.978,387.077 374.978,393.911 384.5,401.5C 386.139,402.322 387.805,402.989 389.5,403.5C 389.721,404.735 390.388,405.735 391.5,406.5C 319.17,407.5 246.836,407.833 174.5,407.5C 174.5,358.5 174.5,309.5 174.5,260.5 Z"/></g>
<g><path style="opacity:1" fill="#242d5c" d="M 1221.5,260.5 C 1222.5,308.997 1222.83,357.664 1222.5,406.5C 1149.66,406.833 1077,406.499 1004.5,405.5C 1007.91,403.274 1011.24,400.774 1014.5,398C 1016.65,396.589 1018.98,395.755 1021.5,395.5C 1021.5,394.5 1021.5,393.5 1021.5,392.5C 1025.29,390.77 1028.96,388.77 1032.5,386.5C 1035.38,385.621 1037.71,383.954 1039.5,381.5C 1041.29,381.785 1042.95,381.452 1044.5,380.5C 1046.72,378.245 1049.05,376.245 1051.5,374.5C 1058.34,368.721 1065.67,363.721 1073.5,359.5C 1074.41,358.672 1075.08,357.672 1075.5,356.5C 1092.61,345.044 1109.94,334.044 1127.5,323.5C 1136.89,315.814 1146.89,309.147 1157.5,303.5C 1159.32,302.272 1160.32,300.606 1160.5,298.5C 1161.87,298.657 1163.21,298.49 1164.5,298C 1166.36,295.938 1168.69,294.605 1171.5,294C 1173.15,291.505 1175.48,290.005 1178.5,289.5C 1179.39,288.675 1179.72,287.675 1179.5,286.5C 1183.52,284.706 1187.52,282.706 1191.5,280.5C 1200.87,272.926 1210.87,266.259 1221.5,260.5 Z"/></g>
<g><path style="opacity:1" fill="#c0becf" d="M 231.5,297.5 C 235.688,298.36 238.688,300.693 240.5,304.5C 236.91,302.908 233.91,300.575 231.5,297.5 Z"/></g>
<g><path style="opacity:1" fill="#ee8484" d="M 474.5,374.5 C 477.069,374.738 478.735,376.071 479.5,378.5C 477.52,377.516 475.853,376.183 474.5,374.5 Z"/></g>
<g><path style="opacity:1" fill="#626288" d="M 1051.5,374.5 C 1049.05,376.245 1046.72,378.245 1044.5,380.5C 1042.95,381.452 1041.29,381.785 1039.5,381.5C 1042.11,379.576 1044.78,377.576 1047.5,375.5C 1048.69,374.571 1050.02,374.238 1051.5,374.5 Z"/></g>
<g><path style="opacity:1" fill="#9392ad" d="M 1039.5,381.5 C 1037.71,383.954 1035.38,385.621 1032.5,386.5C 1034.06,383.792 1036.39,382.126 1039.5,381.5 Z"/></g>
<g><path style="opacity:1" fill="#b5b1c8" d="M 389.5,403.5 C 390.807,404.153 392.14,404.82 393.5,405.5C 394.731,406.651 394.731,407.817 393.5,409C 320.501,409.5 247.501,409.667 174.5,409.5C 174.5,408.833 174.5,408.167 174.5,407.5C 246.836,407.833 319.17,407.5 391.5,406.5C 390.388,405.735 389.721,404.735 389.5,403.5 Z"/></g>
<g><path style="opacity:1" fill="#aea9c2" d="M 1002.5,405.5 C 1002.83,405.5 1003.17,405.5 1003.5,405.5C 1076.83,407.497 1150.49,408.164 1224.5,407.5C 1224.5,407.833 1224.5,408.167 1224.5,408.5C 1150.5,408.5 1076.5,408.5 1002.5,408.5C 1002.5,407.5 1002.5,406.5 1002.5,405.5 Z"/></g>
<g><path style="opacity:1" fill="#f9d3cb" d="M 521.5,405.5 C 522.434,406.568 522.768,407.901 522.5,409.5C 495.812,410.158 469.479,409.491 443.5,407.5C 469.855,408.158 495.855,407.491 521.5,405.5 Z"/></g>
<g><path style="opacity:1" fill="#f9d3cb" d="M 874.5,405.5 C 900.145,407.491 926.145,408.158 952.5,407.5C 926.188,409.491 899.521,410.158 872.5,409.5C 872.157,407.517 872.824,406.183 874.5,405.5 Z"/></g>
<g><path style="opacity:1" fill="#c7c5d5" d="M 1002.5,405.5 C 1002.5,406.5 1002.5,407.5 1002.5,408.5C 1076.5,408.5 1150.5,408.5 1224.5,408.5C 1224.5,408.833 1224.5,409.167 1224.5,409.5C 1150.17,409.5 1075.83,409.5 1001.5,409.5C 1001.23,407.901 1001.57,406.568 1002.5,405.5 Z"/></g>
<g><path style="opacity:1" fill="#e55b63" d="M 761.5,454.5 C 915.833,454.5 1070.17,454.5 1224.5,454.5C 1224.5,500.5 1224.5,546.5 1224.5,592.5C 1070.17,592.5 915.833,592.5 761.5,592.5C 914.999,591.5 1068.67,591.167 1222.5,591.5C 1222.5,546.167 1222.5,500.833 1222.5,455.5C 1068.67,455.833 914.999,455.5 761.5,454.5 Z"/></g>
<g><path style="opacity:1" fill="#f7cbc2" d="M 174.5,592.5 C 328.833,592.5 483.167,592.5 637.5,592.5C 637.5,686.5 637.5,780.5 637.5,874.5C 636.833,874.5 636.167,874.5 635.5,874.5C 635.5,781.167 635.5,687.833 635.5,594.5C 481.833,594.5 328.167,594.5 174.5,594.5C 174.5,593.833 174.5,593.167 174.5,592.5 Z"/></g>
<g><path style="opacity:1" fill="#f8cdc5" d="M 761.5,592.5 C 915.833,592.5 1070.17,592.5 1224.5,592.5C 1224.5,593.167 1224.5,593.833 1224.5,594.5C 1070.17,594.5 915.833,594.5 761.5,594.5C 761.5,593.833 761.5,593.167 761.5,592.5 Z"/></g>
<g><path style="opacity:1" fill="#fefdfd" d="M 174.5,594.5 C 328.167,594.5 481.833,594.5 635.5,594.5C 635.5,687.833 635.5,781.167 635.5,874.5C 622.167,874.5 608.833,874.5 595.5,874.5C 595.5,801.167 595.5,727.833 595.5,654.5C 594.022,654.238 592.689,654.571 591.5,655.5C 588.216,659.149 584.216,661.816 579.5,663.5C 578.147,664.524 577.48,665.857 577.5,667.5C 575.436,667.687 573.436,668.187 571.5,669C 567.508,672.331 563.175,675.164 558.5,677.5C 557.585,678.328 556.919,679.328 556.5,680.5C 549.842,684.486 543.176,688.486 536.5,692.5C 535.085,695.381 532.751,697.047 529.5,697.5C 529.167,698.167 528.833,698.833 528.5,699.5C 521.824,703.514 515.158,707.514 508.5,711.5C 502.911,714.982 497.577,718.982 492.5,723.5C 488.895,723.797 486.229,725.463 484.5,728.5C 482.58,729.976 480.413,730.976 478,731.5C 475.667,733.5 473.333,735.5 471,737.5C 469.234,738.233 467.401,738.567 465.5,738.5C 465.567,739.959 465.234,741.292 464.5,742.5C 461.923,742.455 459.923,743.455 458.5,745.5C 448.731,752.51 438.731,759.51 428.5,766.5C 421.325,770.482 414.491,775.148 408,780.5C 403.477,783.516 398.643,786.183 393.5,788.5C 391.5,789.167 390.167,790.5 389.5,792.5C 387.72,794.137 385.553,795.137 383,795.5C 377.123,799.996 371.289,804.33 365.5,808.5C 362.077,809.893 359.077,811.893 356.5,814.5C 326.474,834.517 296.474,854.517 266.5,874.5C 235.662,874.831 204.995,874.498 174.5,873.5C 239.111,829.996 304.111,786.663 369.5,743.5C 370.386,742.675 370.719,741.675 370.5,740.5C 373.343,740.058 376.009,739.058 378.5,737.5C 381.188,734.319 384.521,732.152 388.5,731C 405.05,719.276 421.716,707.776 438.5,696.5C 450.772,688.929 462.772,680.762 474.5,672C 479.643,670.078 483.976,667.078 487.5,663C 492.998,660.086 498.331,656.919 503.5,653.5C 507.378,652.734 510.378,650.734 512.5,647.5C 513.167,647.5 513.833,647.5 514.5,647.5C 516.472,645.681 518.805,644.681 521.5,644.5C 521.5,643.5 521.5,642.5 521.5,641.5C 522.404,640.791 522.737,639.791 522.5,638.5C 495.812,637.842 469.479,638.509 443.5,640.5C 434.622,645.355 425.955,650.689 417.5,656.5C 412.571,659.755 407.904,663.421 403.5,667.5C 395.351,671.076 388.018,675.909 381.5,682C 375.639,685.685 369.639,689.185 363.5,692.5C 342.672,706.811 321.672,720.978 300.5,735C 299.552,735.483 298.552,735.649 297.5,735.5C 297.5,736.5 297.5,737.5 297.5,738.5C 295.712,738.215 294.045,738.548 292.5,739.5C 288.016,743.578 283.016,746.911 277.5,749.5C 276.614,750.325 276.281,751.325 276.5,752.5C 274.712,752.215 273.045,752.548 271.5,753.5C 251.194,768.8 230.194,782.8 208.5,795.5C 197.784,804.183 186.451,811.85 174.5,818.5C 174.5,808.167 174.5,797.833 174.5,787.5C 186.963,779.081 199.63,770.748 212.5,762.5C 213.386,761.675 213.719,760.675 213.5,759.5C 215.199,759.66 216.866,759.494 218.5,759C 221.612,754.274 225.945,751.274 231.5,750C 233.641,746.759 236.641,744.759 240.5,744C 243.458,740.859 246.791,738.359 250.5,736.5C 253.981,735.683 256.981,734.017 259.5,731.5C 265.307,726.659 271.307,721.993 277.5,717.5C 289.031,709.702 300.865,702.368 313,695.5C 315.964,691.696 319.797,689.362 324.5,688.5C 330.73,682.039 338.063,677.039 346.5,673.5C 352.938,667.731 359.938,662.731 367.5,658.5C 369.434,657.89 371.101,656.89 372.5,655.5C 372.842,654.662 373.508,654.328 374.5,654.5C 378.34,653.166 381.34,650.833 383.5,647.5C 385.878,646.308 387.878,644.641 389.5,642.5C 390.689,641.571 392.022,641.238 393.5,641.5C 394.404,640.791 394.737,639.791 394.5,638.5C 321.167,638.5 247.833,638.5 174.5,638.5C 174.5,623.833 174.5,609.167 174.5,594.5 Z"/></g>
<g><path style="opacity:1" fill="#fefdfd" d="M 761.5,594.5 C 915.833,594.5 1070.17,594.5 1224.5,594.5C 1224.5,609.167 1224.5,623.833 1224.5,638.5C 1150.17,638.5 1075.83,638.5 1001.5,638.5C 1001.5,639.833 1001.5,641.167 1001.5,642.5C 1005.02,643.784 1008.35,645.451 1011.5,647.5C 1012.93,647.421 1014.26,647.754 1015.5,648.5C 1019.33,652.344 1023.66,655.344 1028.5,657.5C 1028.5,658.5 1028.5,659.5 1028.5,660.5C 1029.96,660.433 1031.29,660.766 1032.5,661.5C 1036.39,661.728 1038.73,663.728 1039.5,667.5C 1041.22,667.629 1042.88,667.962 1044.5,668.5C 1045.92,670.253 1047.59,671.92 1049.5,673.5C 1050.69,674.429 1052.02,674.762 1053.5,674.5C 1057.33,678.633 1061.99,681.633 1067.5,683.5C 1077.89,692.237 1089.22,699.903 1101.5,706.5C 1101.83,707.167 1102.17,707.833 1102.5,708.5C 1109.16,712.486 1115.82,716.486 1122.5,720.5C 1123.92,723.381 1126.25,725.047 1129.5,725.5C 1133.71,729.233 1138.38,732.233 1143.5,734.5C 1143.92,735.672 1144.59,736.672 1145.5,737.5C 1151.96,741.121 1158.29,744.954 1164.5,749C 1165.34,750.011 1165.67,751.178 1165.5,752.5C 1167.4,752.433 1169.23,752.767 1171,753.5C 1183.7,762.712 1196.53,771.712 1209.5,780.5C 1213.86,781.737 1217.52,784.07 1220.5,787.5C 1221.74,788.246 1223.07,788.579 1224.5,788.5C 1224.5,799.167 1224.5,809.833 1224.5,820.5C 1219.09,817.512 1213.92,813.845 1209,809.5C 1205.01,809.091 1202.17,807.091 1200.5,803.5C 1197.27,802.54 1194.27,801.207 1191.5,799.5C 1190.83,797.5 1189.5,796.167 1187.5,795.5C 1185.81,794.989 1184.14,794.322 1182.5,793.5C 1173.86,787.746 1165.53,781.746 1157.5,775.5C 1148.84,769.97 1140.17,764.637 1131.5,759.5C 1129.8,758.39 1128.47,757.057 1127.5,755.5C 1126.33,753.721 1124.66,752.721 1122.5,752.5C 1098.91,737.889 1075.91,722.556 1053.5,706.5C 1020.25,685.718 987.754,664.052 956,641.5C 954.862,641.011 953.695,640.678 952.5,640.5C 926.188,638.509 899.521,637.842 872.5,638.5C 872.285,640.179 872.952,641.179 874.5,641.5C 881.834,646.172 889.167,650.838 896.5,655.5C 900.541,660.094 905.541,663.094 911.5,664.5C 911.281,665.675 911.614,666.675 912.5,667.5C 917.784,670.137 922.784,673.137 927.5,676.5C 932.234,680.186 936.901,683.853 941.5,687.5C 947.526,690.845 953.526,694.178 959.5,697.5C 960.885,698.551 961.885,699.884 962.5,701.5C 964.246,702.395 966.08,703.062 968,703.5C 974.518,709.042 981.518,713.708 989,717.5C 993.356,722.05 998.523,725.05 1004.5,726.5C 1004.82,730.8 1007.15,732.467 1011.5,731.5C 1011.28,732.675 1011.61,733.675 1012.5,734.5C 1024.72,741.768 1036.38,749.768 1047.5,758.5C 1062.37,766.638 1076.37,775.972 1089.5,786.5C 1102.17,793.73 1114.51,801.397 1126.5,809.5C 1128.68,813.424 1132.01,815.591 1136.5,816C 1139.12,819.982 1142.79,822.482 1147.5,823.5C 1149.92,827.082 1153.25,829.249 1157.5,830C 1162.76,834.255 1168.1,838.421 1173.5,842.5C 1177.56,842.893 1180.56,844.893 1182.5,848.5C 1195.6,856.987 1208.6,865.32 1221.5,873.5C 1221.5,873.833 1221.5,874.167 1221.5,874.5C 1190.83,874.5 1160.17,874.5 1129.5,874.5C 1113.54,863.037 1097.21,852.37 1080.5,842.5C 1079.61,841.675 1079.28,840.675 1079.5,839.5C 1076.2,838.237 1072.87,836.904 1069.5,835.5C 1062.74,829.469 1055.41,824.469 1047.5,820.5C 1047.45,818.368 1046.45,817.035 1044.5,816.5C 1039.43,813.117 1034.1,810.117 1028.5,807.5C 1027.12,806.449 1026.12,805.116 1025.5,803.5C 1018.53,799.525 1011.53,795.525 1004.5,791.5C 1003.23,789.188 1001.23,787.855 998.5,787.5C 979.674,773.951 960.674,760.951 941.5,748.5C 940.264,745.379 937.931,744.045 934.5,744.5C 928.919,740.779 923.585,736.612 918.5,732C 913.066,729.687 908.066,726.854 903.5,723.5C 902.833,721.5 901.5,720.167 899.5,719.5C 880.485,707.675 861.818,695.175 843.5,682C 841.132,681.144 838.798,680.31 836.5,679.5C 836.5,678.167 836.5,676.833 836.5,675.5C 834.409,675.682 832.409,675.348 830.5,674.5C 827.683,671.771 824.683,669.438 821.5,667.5C 820.077,665.455 818.077,664.455 815.5,664.5C 815.586,663.504 815.252,662.671 814.5,662C 810.558,661.531 807.558,659.697 805.5,656.5C 804.22,655.069 802.553,654.402 800.5,654.5C 800.5,727.833 800.5,801.167 800.5,874.5C 787.5,874.5 774.5,874.5 761.5,874.5C 761.5,781.167 761.5,687.833 761.5,594.5 Z"/></g>
<g><path style="opacity:1" fill="#bebacd" d="M 174.5,638.5 C 247.833,638.5 321.167,638.5 394.5,638.5C 394.737,639.791 394.404,640.791 393.5,641.5C 320.669,640.501 247.669,640.167 174.5,640.5C 174.5,639.833 174.5,639.167 174.5,638.5 Z"/></g>
<g><path style="opacity:1" fill="#c3c1d2" d="M 1224.5,638.5 C 1224.5,638.833 1224.5,639.167 1224.5,639.5C 1150.5,639.167 1076.5,639.5 1002.5,640.5C 1002.62,641.107 1002.96,641.44 1003.5,641.5C 1005.45,642.473 1007.45,643.473 1009.5,644.5C 1010.61,645.265 1011.28,646.265 1011.5,647.5C 1008.35,645.451 1005.02,643.784 1001.5,642.5C 1001.5,641.167 1001.5,639.833 1001.5,638.5C 1075.83,638.5 1150.17,638.5 1224.5,638.5 Z"/></g>
<g><path style="opacity:1" fill="#f8cdc4" d="M 521.5,641.5 C 495.672,640.502 469.672,640.169 443.5,640.5C 469.479,638.509 495.812,637.842 522.5,638.5C 522.737,639.791 522.404,640.791 521.5,641.5 Z"/></g>
<g><path style="opacity:1" fill="#f8cdc4" d="M 952.5,640.5 C 926.328,640.169 900.328,640.502 874.5,641.5C 872.952,641.179 872.285,640.179 872.5,638.5C 899.521,637.842 926.188,638.509 952.5,640.5 Z"/></g>
<g><path style="opacity:1" fill="#aea9c1" d="M 1224.5,639.5 C 1224.5,639.833 1224.5,640.167 1224.5,640.5C 1150.66,640.167 1077,640.501 1003.5,641.5C 1002.96,641.44 1002.62,641.107 1002.5,640.5C 1076.5,639.5 1150.5,639.167 1224.5,639.5 Z"/></g>
<g><path style="opacity:1" fill="#242d5c" d="M 174.5,640.5 C 247.669,640.167 320.669,640.501 393.5,641.5C 392.022,641.238 390.689,641.571 389.5,642.5C 387.878,644.641 385.878,646.308 383.5,647.5C 379.876,649.135 376.876,651.469 374.5,654.5C 373.508,654.328 372.842,654.662 372.5,655.5C 370.011,655.241 368.344,656.241 367.5,658.5C 359.938,662.731 352.938,667.731 346.5,673.5C 338.063,677.039 330.73,682.039 324.5,688.5C 319.797,689.362 315.964,691.696 313,695.5C 300.865,702.368 289.031,709.702 277.5,717.5C 271.307,721.993 265.307,726.659 259.5,731.5C 255.852,732.045 252.852,733.712 250.5,736.5C 246.791,738.359 243.458,740.859 240.5,744C 236.641,744.759 233.641,746.759 231.5,750C 225.945,751.274 221.612,754.274 218.5,759C 216.866,759.494 215.199,759.66 213.5,759.5C 213.719,760.675 213.386,761.675 212.5,762.5C 199.63,770.748 186.963,779.081 174.5,787.5C 174.5,738.5 174.5,689.5 174.5,640.5 Z"/></g>
<g><path style="opacity:1" fill="#e23245" d="M 443.5,640.5 C 469.672,640.169 495.672,640.502 521.5,641.5C 519.553,642.473 517.553,643.473 515.5,644.5C 514.873,645.417 514.539,646.417 514.5,647.5C 513.833,647.5 513.167,647.5 512.5,647.5C 509.077,648.893 506.077,650.893 503.5,653.5C 498.331,656.919 492.998,660.086 487.5,663C 483.976,667.078 479.643,670.078 474.5,672C 462.772,680.762 450.772,688.929 438.5,696.5C 421.716,707.776 405.05,719.276 388.5,731C 384.521,732.152 381.188,734.319 378.5,737.5C 376.009,739.058 373.343,740.058 370.5,740.5C 370.719,741.675 370.386,742.675 369.5,743.5C 304.111,786.663 239.111,829.996 174.5,873.5C 174.5,855.167 174.5,836.833 174.5,818.5C 186.451,811.85 197.784,804.183 208.5,795.5C 230.194,782.8 251.194,768.8 271.5,753.5C 273.045,752.548 274.712,752.215 276.5,752.5C 276.281,751.325 276.614,750.325 277.5,749.5C 283.016,746.911 288.016,743.578 292.5,739.5C 294.045,738.548 295.712,738.215 297.5,738.5C 297.5,737.5 297.5,736.5 297.5,735.5C 298.552,735.649 299.552,735.483 300.5,735C 321.672,720.978 342.672,706.811 363.5,692.5C 369.639,689.185 375.639,685.685 381.5,682C 388.018,675.909 395.351,671.076 403.5,667.5C 407.904,663.421 412.571,659.755 417.5,656.5C 425.955,650.689 434.622,645.355 443.5,640.5 Z"/></g>
<g><path style="opacity:1" fill="#e23345" d="M 874.5,641.5 C 900.328,640.502 926.328,640.169 952.5,640.5C 953.695,640.678 954.862,641.011 956,641.5C 987.754,664.052 1020.25,685.718 1053.5,706.5C 1075.91,722.556 1098.91,737.889 1122.5,752.5C 1123.34,754.759 1125.01,755.759 1127.5,755.5C 1128.47,757.057 1129.8,758.39 1131.5,759.5C 1140.17,764.637 1148.84,769.97 1157.5,775.5C 1165.53,781.746 1173.86,787.746 1182.5,793.5C 1184.14,794.322 1185.81,794.989 1187.5,795.5C 1187.89,797.71 1189.23,799.043 1191.5,799.5C 1194.27,801.207 1197.27,802.54 1200.5,803.5C 1202.17,807.091 1205.01,809.091 1209,809.5C 1213.92,813.845 1219.09,817.512 1224.5,820.5C 1224.5,824.833 1224.5,829.167 1224.5,833.5C 1222.84,846.635 1221.84,859.969 1221.5,873.5C 1208.6,865.32 1195.6,856.987 1182.5,848.5C 1180.56,844.893 1177.56,842.893 1173.5,842.5C 1168.1,838.421 1162.76,834.255 1157.5,830C 1153.25,829.249 1149.92,827.082 1147.5,823.5C 1142.79,822.482 1139.12,819.982 1136.5,816C 1132.01,815.591 1128.68,813.424 1126.5,809.5C 1114.51,801.397 1102.17,793.73 1089.5,786.5C 1076.37,775.972 1062.37,766.638 1047.5,758.5C 1036.38,749.768 1024.72,741.768 1012.5,734.5C 1011.61,733.675 1011.28,732.675 1011.5,731.5C 1007.15,732.467 1004.82,730.8 1004.5,726.5C 998.523,725.05 993.356,722.05 989,717.5C 981.518,713.708 974.518,709.042 968,703.5C 966.08,703.062 964.246,702.395 962.5,701.5C 961.885,699.884 960.885,698.551 959.5,697.5C 953.526,694.178 947.526,690.845 941.5,687.5C 936.901,683.853 932.234,680.186 927.5,676.5C 922.784,673.137 917.784,670.137 912.5,667.5C 911.614,666.675 911.281,665.675 911.5,664.5C 905.541,663.094 900.541,660.094 896.5,655.5C 889.167,650.838 881.834,646.172 874.5,641.5 Z"/></g>
<g><path style="opacity:1" fill="#242d5c" d="M 1003.5,641.5 C 1077,640.501 1150.66,640.167 1224.5,640.5C 1224.5,689.833 1224.5,739.167 1224.5,788.5C 1223.07,788.579 1221.74,788.246 1220.5,787.5C 1217.52,784.07 1213.86,781.737 1209.5,780.5C 1196.53,771.712 1183.7,762.712 1171,753.5C 1169.23,752.767 1167.4,752.433 1165.5,752.5C 1165.67,751.178 1165.34,750.011 1164.5,749C 1158.29,744.954 1151.96,741.121 1145.5,737.5C 1144.59,736.672 1143.92,735.672 1143.5,734.5C 1138.38,732.233 1133.71,729.233 1129.5,725.5C 1126.25,725.047 1123.92,723.381 1122.5,720.5C 1115.82,716.486 1109.16,712.486 1102.5,708.5C 1102.17,707.833 1101.83,707.167 1101.5,706.5C 1089.22,699.903 1077.89,692.237 1067.5,683.5C 1061.99,681.633 1057.33,678.633 1053.5,674.5C 1051.32,671.323 1048.32,669.323 1044.5,668.5C 1042.88,667.962 1041.22,667.629 1039.5,667.5C 1038.73,663.728 1036.39,661.728 1032.5,661.5C 1031.83,659.5 1030.5,658.167 1028.5,657.5C 1023.66,655.344 1019.33,652.344 1015.5,648.5C 1014.26,647.754 1012.93,647.421 1011.5,647.5C 1011.28,646.265 1010.61,645.265 1009.5,644.5C 1007.45,643.473 1005.45,642.473 1003.5,641.5 Z"/></g>
<g><path style="opacity:1" fill="#f8c2be" d="M 521.5,641.5 C 521.5,642.5 521.5,643.5 521.5,644.5C 518.805,644.681 516.472,645.681 514.5,647.5C 514.539,646.417 514.873,645.417 515.5,644.5C 517.553,643.473 519.553,642.473 521.5,641.5 Z"/></g>
<g><path style="opacity:1" fill="#c0becf" d="M 383.5,647.5 C 381.34,650.833 378.34,653.166 374.5,654.5C 376.876,651.469 379.876,649.135 383.5,647.5 Z"/></g>
<g><path style="opacity:1" fill="#f7bab6" d="M 512.5,647.5 C 510.378,650.734 507.378,652.734 503.5,653.5C 506.077,650.893 509.077,648.893 512.5,647.5 Z"/></g>
<g><path style="opacity:1" fill="#9d9bb5" d="M 372.5,655.5 C 371.101,656.89 369.434,657.89 367.5,658.5C 368.344,656.241 370.011,655.241 372.5,655.5 Z"/></g>
<g><path style="opacity:1" fill="#69698d" d="M 805.5,656.5 C 804.167,656.5 802.833,656.5 801.5,656.5C 801.5,729.167 801.5,801.833 801.5,874.5C 801.167,874.5 800.833,874.5 800.5,874.5C 800.5,801.167 800.5,727.833 800.5,654.5C 802.553,654.402 804.22,655.069 805.5,656.5 Z"/></g>
<g><path style="opacity:1" fill="#242d5c" d="M 595.5,874.5 C 485.833,874.5 376.167,874.5 266.5,874.5C 296.474,854.517 326.474,834.517 356.5,814.5C 357.978,814.762 359.311,814.429 360.5,813.5C 362.409,811.92 364.075,810.253 365.5,808.5C 371.289,804.33 377.123,799.996 383,795.5C 385.553,795.137 387.72,794.137 389.5,792.5C 391.833,792.167 393.167,790.833 393.5,788.5C 398.643,786.183 403.477,783.516 408,780.5C 414.491,775.148 421.325,770.482 428.5,766.5C 438.731,759.51 448.731,752.51 458.5,745.5C 461.077,745.545 463.077,744.545 464.5,742.5C 465.234,741.292 465.567,739.959 465.5,738.5C 467.401,738.567 469.234,738.233 471,737.5C 473.333,735.5 475.667,733.5 478,731.5C 480.413,730.976 482.58,729.976 484.5,728.5C 486.229,725.463 488.895,723.797 492.5,723.5C 497.577,718.982 502.911,714.982 508.5,711.5C 515.158,707.514 521.824,703.514 528.5,699.5C 528.833,698.833 529.167,698.167 529.5,697.5C 532.751,697.047 535.085,695.381 536.5,692.5C 543.176,688.486 549.842,684.486 556.5,680.5C 556.919,679.328 557.585,678.328 558.5,677.5C 563.175,675.164 567.508,672.331 571.5,669C 573.436,668.187 575.436,667.687 577.5,667.5C 577.48,665.857 578.147,664.524 579.5,663.5C 584.216,661.816 588.216,659.149 591.5,655.5C 592.689,654.571 594.022,654.238 595.5,654.5C 595.5,727.833 595.5,801.167 595.5,874.5 Z"/></g>
<g><path style="opacity:1" fill="#242d5c" d="M 805.5,656.5 C 807.558,659.697 810.558,661.531 814.5,662C 815.252,662.671 815.586,663.504 815.5,664.5C 816.923,666.545 818.923,667.545 821.5,667.5C 824.683,669.438 827.683,671.771 830.5,674.5C 832.409,675.348 834.409,675.682 836.5,675.5C 836.5,676.833 836.5,678.167 836.5,679.5C 838.798,680.31 841.132,681.144 843.5,682C 861.818,695.175 880.485,707.675 899.5,719.5C 899.894,721.71 901.227,723.043 903.5,723.5C 908.066,726.854 913.066,729.687 918.5,732C 923.585,736.612 928.919,740.779 934.5,744.5C 936.798,745.828 939.132,747.162 941.5,748.5C 960.674,760.951 979.674,773.951 998.5,787.5C 1001.23,787.855 1003.23,789.188 1004.5,791.5C 1011.53,795.525 1018.53,799.525 1025.5,803.5C 1026.12,805.116 1027.12,806.449 1028.5,807.5C 1034.1,810.117 1039.43,813.117 1044.5,816.5C 1044.47,818.619 1045.47,819.952 1047.5,820.5C 1055.41,824.469 1062.74,829.469 1069.5,835.5C 1072.87,836.904 1076.2,838.237 1079.5,839.5C 1079.28,840.675 1079.61,841.675 1080.5,842.5C 1097.21,852.37 1113.54,863.037 1129.5,874.5C 1020.17,874.5 910.833,874.5 801.5,874.5C 801.5,801.833 801.5,729.167 801.5,656.5C 802.833,656.5 804.167,656.5 805.5,656.5 Z"/></g>
<g><path style="opacity:1" fill="#807f9f" d="M 1028.5,657.5 C 1030.5,658.167 1031.83,659.5 1032.5,661.5C 1031.29,660.766 1029.96,660.433 1028.5,660.5C 1028.5,659.5 1028.5,658.5 1028.5,657.5 Z"/></g>
<g><path style="opacity:1" fill="#9594af" d="M 815.5,664.5 C 818.077,664.455 820.077,665.455 821.5,667.5C 818.923,667.545 816.923,666.545 815.5,664.5 Z"/></g>
<g><path style="opacity:1" fill="#646389" d="M 1044.5,668.5 C 1048.32,669.323 1051.32,671.323 1053.5,674.5C 1052.02,674.762 1050.69,674.429 1049.5,673.5C 1047.59,671.92 1045.92,670.253 1044.5,668.5 Z"/></g>
<g><path style="opacity:1" fill="#a4a2b9" d="M 899.5,719.5 C 901.5,720.167 902.833,721.5 903.5,723.5C 901.227,723.043 899.894,721.71 899.5,719.5 Z"/></g>
<g><path style="opacity:1" fill="#b1afc3" d="M 259.5,731.5 C 256.981,734.017 253.981,735.683 250.5,736.5C 252.852,733.712 255.852,732.045 259.5,731.5 Z"/></g>
<g><path style="opacity:1" fill="#797899" d="M 464.5,742.5 C 463.077,744.545 461.077,745.545 458.5,745.5C 459.923,743.455 461.923,742.455 464.5,742.5 Z"/></g>
<g><path style="opacity:1" fill="#9f9eb6" d="M 934.5,744.5 C 937.931,744.045 940.264,745.379 941.5,748.5C 939.132,747.162 936.798,745.828 934.5,744.5 Z"/></g>
<g><path style="opacity:1" fill="#f4b1aa" d="M 1122.5,752.5 C 1124.66,752.721 1126.33,753.721 1127.5,755.5C 1125.01,755.759 1123.34,754.759 1122.5,752.5 Z"/></g>
<g><path style="opacity:1" fill="#8380a1" d="M 393.5,788.5 C 393.167,790.833 391.833,792.167 389.5,792.5C 390.167,790.5 391.5,789.167 393.5,788.5 Z"/></g>
<g><path style="opacity:1" fill="#ee8785" d="M 1187.5,795.5 C 1189.5,796.167 1190.83,797.5 1191.5,799.5C 1189.23,799.043 1187.89,797.71 1187.5,795.5 Z"/></g>
<g><path style="opacity:1" fill="#5f5f86" d="M 365.5,808.5 C 364.075,810.253 362.409,811.92 360.5,813.5C 359.311,814.429 357.978,814.762 356.5,814.5C 359.077,811.893 362.077,809.893 365.5,808.5 Z"/></g>
<g><path style="opacity:1" fill="#7b7a9b" d="M 1044.5,816.5 C 1046.45,817.035 1047.45,818.368 1047.5,820.5C 1045.47,819.952 1044.47,818.619 1044.5,816.5 Z"/></g>
<g><path style="opacity:1" fill="#e36160" d="M 1224.5,833.5 C 1224.5,847.167 1224.5,860.833 1224.5,874.5C 1223.5,874.5 1222.5,874.5 1221.5,874.5C 1221.5,874.167 1221.5,873.833 1221.5,873.5C 1221.84,859.969 1222.84,846.635 1224.5,833.5 Z"/></g>
</svg>
