<svg width="91" height="92" viewBox="0 0 91 92" fill="none" xmlns="http://www.w3.org/2000/svg">
<path d="M7.43701 64.0128C10.0521 64.0128 12.3197 64.2515 14.2441 64.7245L13.9878 67.4649C11.9983 67.3882 9.85665 67.3499 7.5543 67.3499C6.12945 67.3499 5.17376 67.4862 4.69157 67.7633C4.20504 68.0403 3.96177 68.7094 3.96177 69.7664C3.96177 70.6571 4.13553 71.2836 4.47871 71.6416C4.82189 72.0039 5.45612 72.3193 6.38141 72.5963L10.5387 73.8621C12.1807 74.3692 13.3362 75.1236 14.0009 76.1209C14.6655 77.1182 15 78.4308 15 80.0589C15 81.2735 14.8653 82.2623 14.6003 83.0294C14.3354 83.7966 13.8749 84.4018 13.2276 84.8493C12.576 85.2925 11.7941 85.5994 10.8818 85.7571C9.96525 85.919 8.77932 86 7.32407 86C4.9609 86 2.61512 85.7784 0.282363 85.3309L0.538662 82.4967C3.96612 82.5734 6.25977 82.6118 7.41529 82.6118C8.85317 82.6118 9.81321 82.4498 10.2911 82.1302C10.7689 81.8063 11.0078 81.1073 11.0078 80.0333C11.0078 79.1127 10.8471 78.4777 10.5256 78.1325C10.2042 77.7873 9.60469 77.4847 8.73154 77.2247L4.36577 75.8652C2.81494 75.3878 1.70287 74.6505 1.02085 73.6532C0.338836 72.6559 0 71.3433 0 69.7152C0 68.5006 0.134665 67.5203 0.412685 66.766C0.68636 66.0159 1.14683 65.4363 1.79844 65.0271C2.4457 64.6222 3.20156 64.3495 4.06168 64.2088C4.92181 64.0725 6.04691 64 7.44135 64L7.43701 64.0128Z" fill="white"/>
<path d="M23.6496 65H27.3504C28.0478 65 28.5014 65.341 28.7115 66.0231L35 86H31.1185L29.371 80.0638H21.608L19.8815 86H16L22.2675 66.0231C22.5112 65.341 22.9732 65 23.6538 65H23.6496ZM25.103 67.8881L24.6031 69.6858L22.5154 76.9441H28.4636L26.3759 69.6858C26.1196 68.747 25.9684 68.1449 25.9222 67.8881H25.103Z" fill="white"/>
<path d="M45.3012 64C47.9558 64 49.7987 64.3924 50.8299 65.1772C51.8611 65.962 52.3747 67.4324 52.3747 69.5927C52.3747 71.1623 52.093 72.3481 51.534 73.1458C50.9749 73.9479 50.0762 74.4092 48.8379 74.5343V74.6507C50.3454 74.7887 51.4139 75.3363 52.0475 76.2807C52.6811 77.2293 53 78.5962 53 80.3814C53 82.5417 52.4906 84.0165 51.476 84.8099C50.4613 85.6033 48.7137 86 46.2372 86C42.775 86 40.0293 85.9138 38 85.7456V64.2372C39.64 64.0819 42.0751 64.0043 45.2971 64.0043L45.3012 64ZM41.6734 67.1478V73.1846H45.4337C46.701 73.1846 47.5748 72.9733 48.0511 72.5551C48.5273 72.1368 48.7675 71.3218 48.7675 70.1102C48.7675 68.8985 48.5108 68.1396 47.9972 67.7472C47.4837 67.3505 46.5229 67.1521 45.1231 67.1521H41.6775L41.6734 67.1478ZM41.6734 76.022V82.8048L45.6118 82.8522C47.0157 82.8695 47.9724 82.6582 48.4859 82.2227C48.9994 81.7871 49.2562 80.9334 49.2562 79.6613C49.2562 78.247 48.987 77.2897 48.4486 76.7852C47.9103 76.2807 46.9205 76.0263 45.471 76.0263H41.6651L41.6734 76.022Z" fill="white"/>
<path d="M61.2643 64.0044C65.3534 64.0044 68.264 64.0833 70 64.2412L69.8288 67.2982H62.0606C61.543 67.2982 61.1767 67.4386 60.9538 67.7149C60.7308 67.9912 60.6193 68.4605 60.6193 69.1272V72.9649H68.7737V76.0219H60.6193V80.8816C60.6193 81.5614 60.7308 82.0395 60.9538 82.3158C61.1767 82.5921 61.543 82.7325 62.0606 82.7325H69.8288L70 85.7412C68.264 85.9167 65.3534 86 61.2643 86C59.9424 86 58.9032 85.6272 58.1427 84.886C57.3822 84.1447 57 83.1316 57 81.8509V68.1491C57 66.8684 57.3822 65.8596 58.1507 65.114C58.9191 64.3728 59.9544 64 61.2603 64L61.2643 64.0044Z" fill="white"/>
<path d="M76.6805 64.9825C77.9497 64.3261 79.7177 64 81.9891 64C84.2604 64 86.0328 64.3261 87.3107 64.9825C88.5886 65.6389 89.5208 66.7427 90.1116 68.3022C90.7024 69.8617 91 72.0358 91 74.8204C91 77.6049 90.7068 79.7748 90.1116 81.326C89.5164 82.8771 88.5842 83.9809 87.3107 84.6373C86.0328 85.2937 84.2604 85.6198 81.9891 85.6198C79.7177 85.6198 77.9497 85.2937 76.6805 84.6373C75.4114 83.9809 74.4792 82.8771 73.8884 81.326C73.2976 79.7748 73 77.6049 73 74.8204C73 72.0358 73.2976 69.8617 73.8884 68.3022C74.4792 66.7427 75.4114 65.6348 76.6805 64.9825ZM85.7877 68.8458C85.1007 67.7671 83.8359 67.2319 81.9934 67.2319C80.151 67.2319 78.8775 67.7754 78.186 68.8583C77.4902 69.9412 77.1444 71.9313 77.1444 74.8245C77.1444 77.7178 77.4902 79.6828 78.186 80.7657C78.8775 81.8486 80.1466 82.3921 81.9934 82.3921C83.8403 82.3921 85.105 81.8528 85.7877 80.7783C86.4748 79.6996 86.8162 77.7178 86.8162 74.8245C86.8162 71.9313 86.4748 69.9244 85.7877 68.8499V68.8458ZM79.5558 88.5841L80.523 86.3933C83.1575 87.2839 86.1904 87.9445 89.6302 88.3835L88.4004 92C85.547 91.3519 82.5974 90.2147 79.5558 88.5883V88.5841Z" fill="white"/>
<path d="M22 14.4979C22 11.3232 23.3129 8.44659 25.4411 6.3679C27.565 4.28501 30.5041 3 33.7479 3C40.2396 3 45.5 8.14844 45.5 14.5021C45.5 17.6768 46.8129 20.5534 48.9411 22.6321C51.065 24.715 54.0041 26 57.2479 26C63.7396 26 69 31.1484 69 37.5021C69 40.6768 67.6871 43.5534 65.5589 45.6321C63.435 47.715 60.4959 49 57.2521 49C54.0084 49 51.0693 47.715 48.9454 45.6321C46.8172 43.5534 45.5043 40.6768 45.5043 37.5021C45.5043 31.1484 40.2439 26 33.7521 26C30.5084 26 27.5693 24.715 25.4454 22.6321C23.3172 20.5534 22.0043 17.6768 22.0043 14.5021L22 14.4979Z" fill="url(#paint0_linear_89_695)"/>
<path d="M49.279 13.9756C49.3336 14.2192 49.3882 14.4586 49.4596 14.7022C49.489 14.7988 49.5226 14.8911 49.552 14.9835C49.6318 15.2355 49.7116 15.4875 49.8124 15.7353C49.8208 15.7563 49.8334 15.7773 49.8418 15.7983C49.9636 16.0965 50.0896 16.3989 50.2366 16.6886C50.266 16.7474 50.3038 16.802 50.3332 16.8608C50.4634 17.1086 50.602 17.3522 50.749 17.5874C50.8078 17.6798 50.8708 17.7722 50.9296 17.8646C51.085 18.0998 51.2488 18.335 51.4252 18.5617C51.484 18.6373 51.547 18.7129 51.61 18.7885C51.7864 19.0069 51.9712 19.2169 52.1686 19.4227C52.2316 19.4899 52.2988 19.5529 52.3618 19.6159C52.5634 19.8217 52.7734 20.0191 52.9918 20.2081C53.0506 20.2585 53.1136 20.3089 53.1724 20.3592C53.4034 20.5482 53.6428 20.733 53.8864 20.9094C53.9368 20.9472 53.9914 20.9808 54.046 21.0144C54.3022 21.1908 54.571 21.3546 54.844 21.51C54.886 21.5352 54.9322 21.5562 54.9784 21.5814C55.264 21.7368 55.5538 21.8838 55.852 22.014C55.8856 22.0266 55.915 22.0392 55.9486 22.056C56.2636 22.1903 56.5828 22.3163 56.9146 22.4255C57.2464 22.5347 57.5824 22.6229 57.9142 22.7027C57.9436 22.7111 57.973 22.7195 58.0024 22.7237C58.33 22.7951 58.6576 22.8539 58.9852 22.8959C59.0272 22.9001 59.0692 22.9085 59.1112 22.9127C59.4346 22.9505 59.7538 22.9757 60.0772 22.9883C60.1276 22.9883 60.1822 22.9925 60.2326 22.9967C60.5476 23.0051 60.8626 22.9967 61.1776 22.9799C61.2406 22.9799 61.2994 22.9757 61.3624 22.9673C61.6732 22.9421 61.9798 22.9085 62.2822 22.8581C62.3494 22.8455 62.4166 22.8371 62.4838 22.8245C62.7904 22.7699 63.097 22.7027 63.3952 22.6229C63.4582 22.6061 63.5212 22.5935 63.5842 22.5725C63.8992 22.4843 64.21 22.3793 64.5166 22.2659C64.5628 22.2491 64.609 22.2323 64.6594 22.2155C64.987 22.0896 65.3104 21.9426 65.6254 21.7872C65.6464 21.7746 65.6674 21.7704 65.6884 21.7578C65.7094 21.7452 65.7262 21.7326 65.7472 21.7242C66.0622 21.5646 66.3646 21.3882 66.6628 21.1992C66.709 21.1698 66.7552 21.1362 66.8014 21.1068C67.0702 20.9304 67.3348 20.7456 67.5868 20.5482C67.6414 20.5062 67.6918 20.46 67.7464 20.418C67.9858 20.2249 68.221 20.0191 68.4478 19.8049C68.494 19.7587 68.5402 19.7167 68.5864 19.6705C68.8132 19.4479 69.0274 19.2169 69.2374 18.9775C69.2668 18.9397 69.2962 18.9061 69.3298 18.8683C69.544 18.6121 69.7456 18.3476 69.9388 18.0746C69.9556 18.0536 69.9682 18.0326 69.9808 18.0116C70.1782 17.7218 70.3672 17.4236 70.5394 17.117C70.5394 17.1128 70.5478 17.1044 70.5478 17.1002C70.9006 16.4703 71.1988 15.7983 71.4298 15.0885C71.7826 14.0134 71.9632 12.9257 71.9968 11.8505C71.9968 11.8421 71.9968 11.8295 71.9968 11.8211C72.0052 11.4683 71.9968 11.1156 71.9758 10.7628C71.9758 10.7376 71.9758 10.7082 71.9716 10.683C71.9464 10.3428 71.9044 10.0026 71.854 9.66663C71.8498 9.62883 71.8414 9.59104 71.8372 9.55324C71.7784 9.21726 71.707 8.88548 71.6188 8.55789C71.6104 8.52009 71.602 8.4865 71.5894 8.4487C71.4928 8.10432 71.3836 7.75994 71.2534 7.42815C71.245 7.41136 71.2408 7.39456 71.2324 7.37356C71.0938 7.01238 70.9384 6.6596 70.762 6.31521C70.6612 6.11783 70.5562 5.92044 70.4428 5.73145C70.4428 5.73985 70.4428 5.75245 70.4428 5.76085C68.9812 3.22838 66.688 1.43088 64.084 0.578328C61.291 -0.341422 58.141 -0.19443 55.306 1.23769C52.4752 2.66981 50.4844 5.11828 49.5688 7.91533C49.0648 9.44404 48.8926 11.082 49.0648 12.7157C49.0648 12.7115 49.0606 12.7073 49.0564 12.7031C49.0648 12.7745 49.0816 12.8459 49.09 12.9173C49.1194 13.1608 49.153 13.4044 49.1992 13.648C49.2202 13.7572 49.2454 13.8664 49.2706 13.9798L49.279 13.9756Z" fill="url(#paint1_linear_89_695)"/>
<path d="M36.3466 50.3964C36.5608 50.2705 36.775 50.1404 36.9808 49.9976C37.0606 49.9431 37.1404 49.8801 37.2202 49.8213C37.4344 49.666 37.6486 49.5107 37.8545 49.3386C37.8713 49.3218 37.8881 49.305 37.9049 49.2924C38.1527 49.0825 38.3963 48.8726 38.6273 48.6375C38.6735 48.5914 38.7155 48.5368 38.7617 48.4906C38.9549 48.2891 39.1439 48.0834 39.3245 47.8693C39.3959 47.7854 39.4631 47.6972 39.5345 47.6091C39.7109 47.3866 39.8831 47.1557 40.0427 46.9206C40.0973 46.8408 40.1477 46.7569 40.2023 46.6729C40.3535 46.4379 40.4963 46.1944 40.6308 45.9467C40.6728 45.8669 40.7148 45.783 40.7568 45.7032C40.887 45.4472 41.0088 45.1869 41.1222 44.9182C41.1516 44.8469 41.181 44.7713 41.2062 44.6999C41.3154 44.4229 41.4162 44.1374 41.5044 43.8478C41.5212 43.789 41.538 43.726 41.5548 43.6631C41.6388 43.365 41.7144 43.0586 41.7774 42.7521C41.7858 42.7018 41.7942 42.6514 41.8026 42.6052C41.8614 42.2862 41.9076 41.9671 41.9412 41.6397C41.9412 41.6061 41.9454 41.5684 41.9496 41.5348C41.979 41.1947 42 40.8505 42 40.5021C42 40.1537 41.9832 39.8095 41.9496 39.4652C41.9496 39.4358 41.9496 39.4065 41.9412 39.3729C41.9076 39.0412 41.8614 38.7138 41.7984 38.3864C41.79 38.3444 41.7858 38.3024 41.7774 38.2604C41.7144 37.9414 41.6346 37.6308 41.5464 37.3201C41.5338 37.2698 41.517 37.2194 41.5044 37.169C41.412 36.8668 41.307 36.5687 41.1936 36.2791C41.1726 36.2203 41.1474 36.1615 41.1264 36.107C41.0088 35.8215 40.8786 35.5402 40.7358 35.2674C40.7064 35.2086 40.677 35.1456 40.6434 35.0869C40.4963 34.8098 40.3367 34.5454 40.1687 34.2809C40.1351 34.2263 40.1015 34.1717 40.0637 34.1172C39.8831 33.8443 39.6857 33.5798 39.4799 33.3238C39.4505 33.286 39.4211 33.244 39.3875 33.2062C39.1649 32.9334 38.9255 32.6731 38.6777 32.4212C38.6609 32.4045 38.6483 32.3835 38.6315 32.3667C38.6147 32.3499 38.5979 32.3373 38.5811 32.3205C38.3291 32.0728 38.0687 31.8377 37.7999 31.6111C37.7579 31.5733 37.7117 31.5439 37.6654 31.5061C37.4134 31.3046 37.1572 31.1157 36.8884 30.9352C36.8296 30.8974 36.775 30.8596 36.7162 30.8261C36.4558 30.6581 36.187 30.4986 35.914 30.3517C35.8552 30.3223 35.8006 30.2929 35.7418 30.2635C35.4604 30.1208 35.1748 29.9865 34.8808 29.8648C34.8387 29.848 34.7925 29.8312 34.7505 29.8144C34.4397 29.6926 34.1289 29.5793 33.8055 29.4827C33.7803 29.4744 33.7551 29.4702 33.7299 29.4618C33.3939 29.3652 33.0537 29.2813 32.7051 29.2099C32.6967 29.2099 32.6925 29.2099 32.6841 29.2099C31.9743 29.0714 31.2476 29 30.5 29C29.3702 29 28.2781 29.1679 27.2449 29.4702C27.2365 29.4702 27.2239 29.4744 27.2155 29.4786C26.8753 29.5793 26.5435 29.6968 26.2201 29.827C26.1948 29.8354 26.1696 29.848 26.1444 29.8564C25.8294 29.9865 25.5186 30.1292 25.2162 30.2887C25.1826 30.3055 25.149 30.3223 25.1112 30.3433C24.8088 30.5028 24.519 30.6749 24.2334 30.8638C24.1998 30.8848 24.1704 30.9058 24.1368 30.9268C23.8386 31.1241 23.5488 31.3382 23.2715 31.5649C23.2589 31.5775 23.2421 31.5859 23.2253 31.5985C22.9271 31.8419 22.6373 32.1022 22.3643 32.3751C22.2089 32.5304 22.0535 32.6941 21.9107 32.862C21.9191 32.862 21.9275 32.8536 21.9401 32.8494C19.9912 35.0281 19 37.7651 19 40.5063C19 43.449 20.1214 46.3917 22.3685 48.6333C24.6114 50.875 27.5599 52 30.5 52C32.1129 52 33.7215 51.6516 35.2168 50.9799C35.2168 50.9799 35.2084 50.9883 35.2084 50.9925C35.2756 50.9631 35.3386 50.9254 35.4016 50.896C35.6242 50.791 35.8426 50.6819 36.061 50.5643C36.1618 50.5098 36.2542 50.451 36.3508 50.3922L36.3466 50.3964Z" fill="url(#paint2_linear_89_695)"/>
<path d="M68.9958 37.0334C68.9958 40.1657 67.6958 43.0042 65.5955 45.0524C65.2525 45.3959 64.8798 45.7104 64.4945 46C65.4091 44.3821 65.93 42.516 65.93 40.5381C65.93 37.4058 64.63 34.5673 62.5297 32.5191C60.4336 30.4626 57.5245 29.1964 54.3232 29.1964C47.9122 29.1964 42.7122 24.1193 42.7122 17.8506C42.7122 14.7182 41.4123 11.8797 39.3119 9.8315C37.2159 7.77502 34.3068 6.50885 31.1055 6.50885C28.4293 6.50885 25.9606 7.39434 24 8.88395C24.5251 7.94053 25.1941 7.07987 25.969 6.32265C28.0651 4.26617 30.9742 3 34.1755 3C37.3768 3 40.2859 4.2703 42.382 6.32265C44.4865 8.37086 45.7823 11.2135 45.7823 14.3417C45.7823 20.6063 50.978 25.6875 57.3932 25.6875C60.5988 25.6875 63.5036 26.9579 65.5997 29.0102C67.7042 31.0584 69 33.9011 69 37.0293L68.9958 37.0334Z" fill="url(#paint3_linear_89_695)"/>
<path opacity="0.43" d="M72 11.5064C72 14.6793 70.7197 17.5622 68.6443 19.6382C67.6653 20.6216 66.5146 21.4285 65.2385 22C67.046 19.9702 68.1423 17.2848 68.1423 14.3473C68.1423 11.1786 66.8619 8.2915 64.7866 6.21547C62.7155 4.13524 59.8494 2.84508 56.6904 2.84508C55.0209 2.84508 53.431 3.20649 52 3.85788C52.1423 3.69398 52.2971 3.52588 52.4519 3.37039C54.523 1.29016 57.3891 0 60.5481 0C63.7071 0 66.5774 1.29437 68.6443 3.37039C70.7197 5.45062 72 8.33352 72 11.5022V11.5064Z" fill="url(#paint4_linear_89_695)"/>
<path d="M42 40.5064C42 43.6793 40.7197 46.5622 38.6444 48.6382C37.6653 49.6216 36.5146 50.4285 35.2385 51C37.046 48.9702 38.1423 46.2848 38.1423 43.3473C38.1423 40.1786 36.8619 37.2915 34.7866 35.2155C32.7155 33.1352 29.8494 31.8451 26.6904 31.8451C25.0209 31.8451 23.431 32.2065 22 32.8579C22.1423 32.694 22.2971 32.5259 22.4519 32.3704C24.523 30.2902 27.3891 29 30.5481 29C33.7071 29 36.5774 30.2944 38.6444 32.3704C40.7197 34.4506 42 37.3335 42 40.5022V40.5064Z" fill="url(#paint5_linear_89_695)"/>
<defs>
<linearGradient id="paint0_linear_89_695" x1="69" y1="25.9958" x2="22" y2="25.9958" gradientUnits="userSpaceOnUse">
<stop stop-color="#F7A000"/>
<stop offset="1" stop-color="#FFBC00"/>
</linearGradient>
<linearGradient id="paint1_linear_89_695" x1="64.0889" y1="0.573175" x2="56.9137" y2="22.4233" gradientUnits="userSpaceOnUse">
<stop stop-color="#2991E1"/>
<stop offset="0.39" stop-color="#2980E1"/>
<stop offset="1" stop-color="#2960E1"/>
</linearGradient>
<linearGradient id="paint2_linear_89_695" x1="18.9958" y1="40.5063" x2="41.9958" y2="40.5063" gradientUnits="userSpaceOnUse">
<stop stop-color="#DC003E"/>
<stop offset="1" stop-color="#FF6D98"/>
</linearGradient>
<linearGradient id="paint3_linear_89_695" x1="55.9535" y1="62.4519" x2="47.5891" y2="25.2762" gradientUnits="userSpaceOnUse">
<stop stop-color="#FFD800"/>
<stop offset="1" stop-color="#FFB900"/>
</linearGradient>
<linearGradient id="paint4_linear_89_695" x1="51.9958" y1="11.0021" x2="72" y2="11.0021" gradientUnits="userSpaceOnUse">
<stop stop-color="#36D8F1"/>
<stop offset="0.39" stop-color="#35D7F0" stop-opacity="0.99"/>
<stop offset="0.53" stop-color="#33D3EE" stop-opacity="0.97"/>
<stop offset="0.63" stop-color="#30CDEB" stop-opacity="0.92"/>
<stop offset="0.71" stop-color="#2CC5E7" stop-opacity="0.85"/>
<stop offset="0.78" stop-color="#26B9E2" stop-opacity="0.77"/>
<stop offset="0.84" stop-color="#1EACDB" stop-opacity="0.66"/>
<stop offset="0.9" stop-color="#169BD3" stop-opacity="0.53"/>
<stop offset="0.95" stop-color="#0C88CA" stop-opacity="0.38"/>
<stop offset="0.99" stop-color="#0173C0" stop-opacity="0.22"/>
<stop offset="1" stop-color="#0071BF" stop-opacity="0.2"/>
</linearGradient>
<linearGradient id="paint5_linear_89_695" x1="42" y1="40.0021" x2="21.9958" y2="40.0021" gradientUnits="userSpaceOnUse">
<stop stop-color="#DC003E"/>
<stop offset="1" stop-color="#FF6D98"/>
</linearGradient>
</defs>
</svg>
